<?xml version="1.0" encoding="UTF-8" standalone="no"?>
<!-- Created with Inkscape (http://www.inkscape.org/) -->

<svg
   width="100mm"
   height="100mm"
   viewBox="0 0 100 100"
   version="1.1"
   id="svg1"
   inkscape:version="1.4 (86a8ad7, 2024-10-11)"
   sodipodi:docname="aboutHandArt.svg"
   xmlns:inkscape="http://www.inkscape.org/namespaces/inkscape"
   xmlns:sodipodi="http://sodipodi.sourceforge.net/DTD/sodipodi-0.dtd"
   xmlns="http://www.w3.org/2000/svg"
   xmlns:svg="http://www.w3.org/2000/svg">
  <sodipodi:namedview
     id="namedview1"
     pagecolor="#ffffff"
     bordercolor="#000000"
     borderopacity="0.25"
     inkscape:showpageshadow="2"
     inkscape:pageopacity="0.0"
     inkscape:pagecheckerboard="0"
     inkscape:deskcolor="#d1d1d1"
     inkscape:document-units="mm"
     inkscape:zoom="1.18"
     inkscape:cx="200.42373"
     inkscape:cy="216.52542"
     inkscape:window-width="1920"
     inkscape:window-height="1017"
     inkscape:window-x="-8"
     inkscape:window-y="-2"
     inkscape:window-maximized="1"
     inkscape:current-layer="layer1" />
  <defs
     id="defs1">
    <inkscape:path-effect
       effect="powerstroke"
       message=""
       id="path-effect14"
       is_visible="true"
       lpeversion="1.3"
       scale_width="1"
       interpolator_type="CentripetalCatmullRom"
       interpolator_beta="0.75"
       start_linecap_type="round"
       end_linecap_type="round"
       offset_points="155.80893,5.4662575"
       linejoin_type="spiro"
       miter_limit="4"
       not_jump="true"
       sort_points="true" />
    <inkscape:path-effect
       effect="simplify"
       id="path-effect13"
       is_visible="true"
       lpeversion="1.3"
       threshold="0.012"
       steps="1"
       smooth_angles="0"
       helper_size="0"
       simplify_individual_paths="false"
       simplify_just_coalesce="false"
       step="1" />
    <inkscape:path-effect
       effect="powerstroke"
       message=""
       id="path-effect12"
       is_visible="true"
       lpeversion="1.3"
       scale_width="1"
       interpolator_type="CentripetalCatmullRom"
       interpolator_beta="0.75"
       start_linecap_type="round"
       end_linecap_type="round"
       offset_points="211.04914,5.4662575"
       linejoin_type="spiro"
       miter_limit="4"
       not_jump="true"
       sort_points="true" />
    <inkscape:path-effect
       effect="simplify"
       id="path-effect11"
       is_visible="true"
       lpeversion="1.3"
       threshold="0.012"
       steps="1"
       smooth_angles="0"
       helper_size="0"
       simplify_individual_paths="false"
       simplify_just_coalesce="false"
       step="1" />
    <inkscape:path-effect
       effect="powerstroke"
       message=""
       id="path-effect10"
       is_visible="true"
       lpeversion="1.3"
       scale_width="1"
       interpolator_type="CentripetalCatmullRom"
       interpolator_beta="0.75"
       start_linecap_type="round"
       end_linecap_type="round"
       offset_points="120.14373,5.4662575"
       linejoin_type="spiro"
       miter_limit="4"
       not_jump="true"
       sort_points="true" />
    <inkscape:path-effect
       effect="simplify"
       id="path-effect9"
       is_visible="true"
       lpeversion="1.3"
       threshold="0.012"
       steps="1"
       smooth_angles="0"
       helper_size="0"
       simplify_individual_paths="false"
       simplify_just_coalesce="false"
       step="1" />
  </defs>
  <g
     inkscape:label="Layer 1"
     inkscape:groupmode="layer"
     id="layer1">
    <path
       style="fill:#000000;stroke:#000000;stroke-width:0.499999;stroke-dasharray:none"
       id="path43"
       d="m 27.08992,77.018789 c 0.626356,-2.558785 0.927087,-5.200637 1.044924,-7.830185 0.08278,-1.847231 0.02771,-3.062115 -0.01418,-4.867767 0.05836,-0.348305 -0.177445,-1.066252 0.175067,-1.044913 0.491554,0.02976 0.693727,0.706636 0.970084,1.114234 1.017636,1.500913 2.559424,4.432737 3.359989,5.950278 1.582918,3.000558 1.568125,3.025648 2.981799,5.927513 0.298405,0.674357 0.596807,1.348714 0.895209,2.023071 0,0 0.01998,-7.94e-4 0.01998,-7.94e-4 v 0 c -0.298405,-0.674381 -0.59681,-1.348761 -0.895213,-2.023145 -1.413838,-2.902243 -1.398691,-2.926611 -2.981804,-5.927592 -0.736745,-1.39659 -2.395863,-4.550796 -3.360018,-5.950741 -0.284181,-0.412628 -0.509828,-1.08449 -1.010028,-1.113115 -0.352705,-0.02019 -0.116713,0.696859 -0.175069,1.045289 0.04188,1.805575 0.09696,3.02042 0.01418,4.867566 -0.117835,2.6294 -0.418536,5.271116 -1.044916,7.829746 z" />
    <path
       style="fill:#000000;stroke:#000000;stroke-width:0.499999;stroke-dasharray:none"
       id="path44"
       d="m 28.239534,73.381589 c 0.805871,-1.09641 0.291772,-0.562952 1.853203,-1.568196 0.465894,-0.29994 0.936723,-0.592148 1.405083,-0.888222 0,0 -0.0199,-0.0021 -0.0199,-0.0021 v 0 c -0.468362,0.296084 -0.939189,0.588309 -1.405088,0.888256 -1.879153,1.2098 -0.766556,0.657014 -2.822765,1.464525 z" />
    <path
       style="fill:#000000;stroke:#000000;stroke-width:0.499999;stroke-dasharray:none"
       id="path45"
       d="m 37.636203,73.784904 c -0.580204,-4.156089 -1.985679,-8.138303 -3.512547,-12.02776 -0.781606,0.417655 -0.240607,-1.593779 -0.866024,-1.688534 -0.12951,-0.01963 -0.06409,0.258231 -0.05593,0.388964 0.02344,0.375743 0.09063,0.747652 0.150021,1.119407 0.217987,1.364501 0.386866,2.129772 0.661789,3.495268 0.08506,0.348141 0.397148,2.07899 0.83462,2.462868 0.744657,0.653428 2.568797,-1.207754 2.974666,-1.542275 0.403516,-0.332581 0.811958,-0.659135 1.217937,-0.988702 0.317371,-0.03336 0.705702,-0.302843 0.952114,-0.100066 0.304454,0.250537 0.28756,0.747316 0.312592,1.140807 0.03732,0.586671 -0.04683,1.176702 -0.128132,1.75891 -0.16414,1.175332 -0.468157,2.341766 -0.892186,3.450048 -0.134718,0.352107 -0.323236,0.681198 -0.484854,1.021799 -0.125349,0.09311 -0.250698,0.186222 -0.376047,0.279331 0,0 0.01992,0.0019 0.01992,0.0019 v 0 c 0.125373,-0.09343 0.250743,-0.18687 0.376116,-0.280305 0.161621,-0.340688 0.350136,-0.66987 0.484862,-1.022062 0.424013,-1.108419 0.728086,-2.275062 0.892196,-3.450526 0.04861,-0.348187 0.374902,-2.424269 -0.224245,-2.902784 -0.24942,-0.199202 -0.634833,0.06747 -0.952248,0.101211 -0.40598,0.329578 -0.814401,0.656172 -1.217941,0.988732 -0.395499,0.325935 -2.204418,2.18263 -2.934764,1.543116 -0.437414,-0.38301 -0.749831,-2.115433 -0.834604,-2.46236 -0.306596,-1.522791 -0.673814,-3.062902 -0.811805,-4.614093 -0.01146,-0.128913 -0.111575,-0.409911 0.01598,-0.387937 0.623234,0.107365 0.09013,2.073759 0.866,1.688068 1.526852,3.889277 2.932295,7.871312 3.512536,12.027212 z" />
    <path
       style="fill:#000000;stroke:#000000;stroke-width:0.499999;stroke-dasharray:none"
       id="path49"
       d="m 45.991237,63.142989 c -0.267319,0.01995 -0.539065,0.0075 -0.801957,0.05988 -1.584563,0.315802 -3.036941,1.519481 -2.8217,3.30657 0.05805,0.481986 0.343147,0.90828 0.514721,1.362419 0.384574,0.289277 0.700135,0.707101 1.153726,0.867825 1.892824,0.670687 3.777866,-0.649287 4.355023,-2.445001 0.536803,-1.670151 -0.0168,-2.178907 -0.67587,-3.613473 -1.901957,-1.417966 -0.868693,-0.957524 -3.068952,-1.448549 0,0 -0.01982,0.0027 -0.01982,0.0027 v 0 c 2.200016,0.489852 1.166837,0.02998 3.068789,1.446713 0.658997,1.433623 1.212662,1.942211 0.675883,3.611499 -0.567822,1.765829 -2.442678,3.106242 -4.31514,2.444265 -0.453474,-0.160319 -0.769104,-0.577797 -1.153654,-0.866698 -0.17157,-0.453811 -0.456648,-0.879761 -0.514708,-1.361437 -0.219556,-1.821455 1.218862,-2.977354 2.821477,-3.303852 0.24978,-0.05089 0.508246,-0.04008 0.762368,-0.06012 z" />
    <path
       style="fill:#000000;stroke:#000000;stroke-width:0.499999;stroke-dasharray:none"
       id="path50"
       d="m 49.448958,61.646077 c 0.36808,0.980041 1.30467,3.385571 2.599404,3.385918 0.177165,4.8e-5 0.327501,-0.13525 0.491252,-0.202872 0.103486,-0.180068 0.250973,-0.341217 0.310459,-0.540202 0.07464,-0.249682 0.08441,-0.516742 0.08343,-0.777344 -0.0032,-0.849479 -0.128651,-0.719587 -0.204829,-1.488371 -0.0088,-0.08915 -0.05562,-0.226311 0.02384,-0.267711 0.07391,-0.03852 0.132484,0.101161 0.198728,0.151739 0.81475,0.829538 1.448795,1.835362 2.300195,2.630194 0.136226,0.127177 0.300561,0.220429 0.450845,0.330644 0,0 0.01992,-0.0019 0.01992,-0.0019 v 0 c -0.15027,-0.110085 -0.314616,-0.203171 -0.450811,-0.330258 -0.851646,-0.794713 -1.48572,-1.800773 -2.300231,-2.630636 -0.07954,-0.05 -0.152977,-0.188579 -0.238636,-0.149987 -0.08184,0.03687 -0.03268,0.178909 -0.02384,0.268235 0.02188,0.220885 0.08508,0.435935 0.115356,0.655825 0.111543,0.810215 0.208079,1.452441 -0.304282,2.147419 -0.150513,0.06757 -0.286557,0.20265 -0.451543,0.202703 -1.295347,5.29e-4 -2.230945,-2.403827 -2.599256,-3.384005 z" />
    <path
       style="fill:#000000;stroke:#000000;stroke-width:0.499999;stroke-dasharray:none"
       id="path52"
       d="m 56.089076,53.471653 c 0.197575,2.185617 0.492133,4.877618 2.595395,6.144731 1.402319,0.844828 2.067301,0.504979 3.58992,0.331065 1.9744,-0.847367 1.155372,-0.312814 2.536373,-1.475073 0,0 -0.01992,-0.0019 -0.01992,-0.0019 v 0 c -1.38099,1.16146 -0.561993,0.627282 -2.536235,1.473909 -1.510209,0.176504 -2.152821,0.511358 -3.550195,-0.329763 -2.103466,-1.26614 -2.397757,-3.958201 -2.595332,-6.143242 z" />
    <path
       style="fill:#000000;stroke:#000000;stroke-width:0.499999;stroke-dasharray:none"
       id="path53"
       d="m 54.429538,57.244352 c 1.291497,-1.324321 2.554536,-2.683854 3.922376,-3.931372 0.440637,-0.401876 0.907039,-0.774557 1.360559,-1.161833 0,0 -0.01992,-0.0019 -0.01992,-0.0019 v 0 c -0.453522,0.387321 -0.919922,0.76005 -1.360567,1.161957 -1.367811,1.247566 -2.630853,2.607099 -3.922382,3.931407 z" />
    <path
       style="fill:#000000;stroke:#000000;stroke-width:0.499999;stroke-dasharray:none"
       id="path54"
       d="m 64.145596,53.958381 c -0.508598,-0.722085 -1.16958,-1.547723 -1.16358,-2.477032 0.03136,-0.05079 0.0449,-0.118525 0.09407,-0.152355 0.08706,-0.0599 0.197803,-0.07459 0.295241,-0.115493 0.360064,-0.151151 0.746382,-0.31564 1.063614,-0.545299 0.550675,-0.398658 0.641022,-0.583803 1.055278,-1.104741 0.106555,-0.21436 0.245366,-0.415517 0.319667,-0.643077 0.30703,-0.940348 -0.251915,-1.879966 -1.004811,-2.420681 -0.23794,-0.170884 -0.513427,-0.282247 -0.770139,-0.423371 -0.309321,-0.06338 -0.612423,-0.201483 -0.927965,-0.190127 -0.89849,0.03234 -1.736375,0.481455 -2.480648,0.926346 -0.977456,0.58428 -1.79613,1.266563 -2.538487,2.119053 0,0 0.01995,0.0013 0.01995,0.0013 v 0 c 0.742383,-0.852103 1.561073,-1.534361 2.53842,-2.118293 0.7039,-0.420561 1.582576,-0.894096 2.440953,-0.925807 0.315468,-0.01164 0.618596,0.126355 0.927894,0.189529 0.256696,0.140957 0.532143,0.252159 0.770091,0.422871 0.752486,0.539858 1.311786,1.478483 1.004766,2.418127 -0.07431,0.22742 -0.213096,0.428437 -0.319643,0.642655 -0.414362,0.520787 -0.50445,0.70553 -1.055214,1.103987 -0.319807,0.231367 -0.701654,0.392525 -1.06358,0.54501 -0.09756,0.04111 -0.208373,0.05643 -0.295352,0.116776 -0.0493,0.0342 -0.06273,0.102296 -0.0941,0.153445 -0.006,0.92977 0.654536,1.755871 1.163621,2.478286 z" />
    <path
       style="fill:#000000;stroke:#000000;stroke-width:0.499999;stroke-dasharray:none"
       id="path55"
       d="m 66.859594,55.685607 c -0.07543,0.160888 -0.164047,0.31623 -0.226296,0.482664 -0.06887,0.184126 -0.140316,0.371025 -0.165899,0.565936 -0.01619,0.123311 -0.01069,1.025845 0.426659,0.813871 0.111541,-0.05406 0.168791,-0.18156 0.253188,-0.272338 0.06167,-0.152694 0.149326,-0.297315 0.184997,-0.458079 0.170344,-0.76772 -0.214448,-1.440338 -0.896821,-1.786987 -0.140208,-0.07123 -0.295667,-0.10727 -0.4435,-0.160904 0,0 -0.01984,0.0024 -0.01984,0.0024 v 0 c 0.147815,0.05348 0.303234,0.08938 0.443447,0.160441 0.682008,0.345644 1.06712,1.017159 0.896736,1.784241 -0.03566,0.160557 -0.123306,0.304954 -0.184959,0.45743 -0.07115,0.0903 -0.111795,0.2172 -0.213445,0.270894 -0.434866,0.229698 -0.440507,-0.703508 -0.426461,-0.810437 0.02559,-0.194813 0.09703,-0.381606 0.165886,-0.565632 0.06225,-0.166378 0.15086,-0.321667 0.22629,-0.482502 z" />
  </g>
</svg>
