<?xml version="1.0" encoding="UTF-8" standalone="no"?>
<!-- Created with Inkscape (http://www.inkscape.org/) -->

<svg
   width="100mm"
   height="100mm"
   viewBox="0 0 100 100"
   version="1.1"
   id="svg1"
   inkscape:version="1.4 (86a8ad7, 2024-10-11)"
   sodipodi:docname="battleShipHandArt.svg"
   xmlns:inkscape="http://www.inkscape.org/namespaces/inkscape"
   xmlns:sodipodi="http://sodipodi.sourceforge.net/DTD/sodipodi-0.dtd"
   xmlns="http://www.w3.org/2000/svg"
   xmlns:svg="http://www.w3.org/2000/svg">
  <sodipodi:namedview
     id="namedview1"
     pagecolor="#ffffff"
     bordercolor="#000000"
     borderopacity="0.25"
     inkscape:showpageshadow="2"
     inkscape:pageopacity="0.0"
     inkscape:pagecheckerboard="0"
     inkscape:deskcolor="#d1d1d1"
     inkscape:document-units="mm"
     inkscape:zoom="1.18"
     inkscape:cx="200.42373"
     inkscape:cy="216.52542"
     inkscape:window-width="1920"
     inkscape:window-height="1017"
     inkscape:window-x="-8"
     inkscape:window-y="-2"
     inkscape:window-maximized="1"
     inkscape:current-layer="layer1" />
  <defs
     id="defs1">
    <inkscape:path-effect
       effect="powerstroke"
       message=""
       id="path-effect14"
       is_visible="true"
       lpeversion="1.3"
       scale_width="1"
       interpolator_type="CentripetalCatmullRom"
       interpolator_beta="0.75"
       start_linecap_type="round"
       end_linecap_type="round"
       offset_points="155.80893,5.4662575"
       linejoin_type="spiro"
       miter_limit="4"
       not_jump="true"
       sort_points="true" />
    <inkscape:path-effect
       effect="simplify"
       id="path-effect13"
       is_visible="true"
       lpeversion="1.3"
       threshold="0.012"
       steps="1"
       smooth_angles="0"
       helper_size="0"
       simplify_individual_paths="false"
       simplify_just_coalesce="false"
       step="1" />
    <inkscape:path-effect
       effect="powerstroke"
       message=""
       id="path-effect12"
       is_visible="true"
       lpeversion="1.3"
       scale_width="1"
       interpolator_type="CentripetalCatmullRom"
       interpolator_beta="0.75"
       start_linecap_type="round"
       end_linecap_type="round"
       offset_points="211.04914,5.4662575"
       linejoin_type="spiro"
       miter_limit="4"
       not_jump="true"
       sort_points="true" />
    <inkscape:path-effect
       effect="simplify"
       id="path-effect11"
       is_visible="true"
       lpeversion="1.3"
       threshold="0.012"
       steps="1"
       smooth_angles="0"
       helper_size="0"
       simplify_individual_paths="false"
       simplify_just_coalesce="false"
       step="1" />
    <inkscape:path-effect
       effect="powerstroke"
       message=""
       id="path-effect10"
       is_visible="true"
       lpeversion="1.3"
       scale_width="1"
       interpolator_type="CentripetalCatmullRom"
       interpolator_beta="0.75"
       start_linecap_type="round"
       end_linecap_type="round"
       offset_points="120.14373,5.4662575"
       linejoin_type="spiro"
       miter_limit="4"
       not_jump="true"
       sort_points="true" />
    <inkscape:path-effect
       effect="simplify"
       id="path-effect9"
       is_visible="true"
       lpeversion="1.3"
       threshold="0.012"
       steps="1"
       smooth_angles="0"
       helper_size="0"
       simplify_individual_paths="false"
       simplify_just_coalesce="false"
       step="1" />
  </defs>
  <g
     inkscape:label="Layer 1"
     inkscape:groupmode="layer"
     id="layer1">
    <g
       id="g43"
       transform="translate(7.1751412,12.556497)">
      <path
         style="fill:#000000;stroke:#000000;stroke-width:0.499999;stroke-dasharray:none"
         id="path26"
         d="m 22.860763,44.691397 c 0.0041,2.331712 -0.04084,4.666671 0.143145,6.993798 0.05003,0.632756 0.130294,1.262755 0.195441,1.894136 0.170226,1.15284 0.261294,1.873824 0.476222,2.983206 0.0499,0.257556 0.105207,0.514347 0.17285,0.767823 0.01327,0.04971 0.06211,0.189114 0.06891,0.138116 0.03812,-0.285719 -0.144928,-1.507043 -0.149239,-1.541455 -0.344986,-3.074781 -0.865208,-6.152081 -0.834113,-9.256323 0.0067,-0.668333 0.06187,-1.335297 0.09281,-2.002946 0.29324,-1.946455 0.482348,-4.530752 1.934639,-6.038178 0.678494,-0.704252 0.949676,-0.675087 1.82391,-0.949987 0.304308,0.03628 0.628671,-0.0057 0.912929,0.108826 0.820388,0.330557 1.204624,1.01224 1.45084,1.835298 0.547872,1.831435 0.160861,3.693811 -0.170741,5.512456 -0.219734,0.56755 -0.36807,1.168199 -0.659202,1.702652 -0.65034,1.193885 -1.731081,2.180302 -2.975746,2.71752 -0.547848,0.236463 -0.447035,0.258889 -0.719016,0.07969 1.222152,-0.645062 3.476254,-0.930288 4.538937,0.155054 0.331824,0.338902 0.469,0.82455 0.7035,1.236824 0.08485,0.558546 0.244626,1.110769 0.254543,1.675633 0.03466,1.974797 -0.774145,3.994623 -2.041181,5.498113 -0.907783,1.07719 -1.46644,1.274051 -2.618073,1.929474 -0.496624,0.122393 -1.70162,0.728162 -2.174837,0.07645 -0.270355,-0.37233 0.180308,-0.793507 0.389292,-1.027166 0.452554,-0.386715 0.213701,-0.204454 0.717911,-0.545002 0,0 -0.01991,-0.0019 -0.01991,-0.0019 v 0 c -0.504252,0.340857 -0.265384,0.158435 -0.717953,0.545497 -0.198955,0.222827 -0.672922,0.671023 -0.38924,1.030666 0.505598,0.640985 1.690441,0.06022 2.214621,-0.07639 1.151802,-0.655881 1.710266,-0.852789 2.618149,-1.930427 1.267151,-1.504077 2.075887,-3.524252 2.041213,-5.499565 -0.0099,-0.565108 -0.169711,-1.117576 -0.254566,-1.676363 -0.234529,-0.412647 -0.371684,-0.89865 -0.703591,-1.237943 -1.061114,-1.084734 -3.35721,-0.809398 -4.578709,-0.1508 0.05422,0.02717 0.102347,0.08784 0.162662,0.08151 0.49583,-0.05204 1.161118,-0.405186 1.522397,-0.657921 1.506882,-1.05415 2.165398,-2.182863 2.708791,-3.925191 0.331653,-1.819162 0.718511,-3.681781 0.170723,-5.513742 -0.242599,-0.811327 -0.633206,-1.514803 -1.451031,-1.83727 -0.297294,-0.117223 -0.635039,-0.0723 -0.952558,-0.108452 -0.874383,0.275539 -1.145526,0.246557 -1.824029,0.951261 -1.452185,1.508268 -1.641417,4.092231 -1.934678,6.039334 -0.03094,0.667698 -0.08611,1.334715 -0.09281,2.003095 -0.03109,3.104306 0.48911,6.181672 0.834114,9.256516 0.04319,0.34471 0.08721,0.689314 0.129568,1.034124 0.02072,0.168619 0.06391,0.336323 0.05965,0.506156 -0.0013,0.05129 -0.05566,-0.08807 -0.06889,-0.137634 -0.327635,-1.227031 -0.441053,-2.502249 -0.649068,-3.750791 -0.06515,-0.631346 -0.145415,-1.261314 -0.195441,-1.894038 -0.183988,-2.32709 -0.139076,-4.662014 -0.143145,-6.993689 z" />
      <path
         style="fill:#000000;stroke:#000000;stroke-width:0.499999;stroke-dasharray:none"
         id="path27"
         d="m 34.665853,49.993025 c -0.160866,0.166492 -0.349697,0.309912 -0.4826,0.499478 -0.711819,1.015312 -1.435277,2.766539 -1.142462,4.026432 0.04161,0.179059 0.178556,0.321395 0.267835,0.482092 0.12265,0.0042 0.264795,0.07919 0.367948,0.0127 0.566155,-0.364892 0.572947,-1.337987 0.814742,-1.876951 0.04562,-0.101688 0.128532,-0.292995 0.228626,-0.243975 0.244949,0.119959 0.357238,0.412244 0.535856,0.618365 0.73462,1.104136 1.482206,2.200114 2.20986,3.308863 0.451075,0.687319 0.343207,0.436486 0.506945,0.901243 0,0 0.02,-7.94e-4 0.02,-7.94e-4 v 0 c -0.163631,-0.465249 -0.05578,-0.214236 -0.506968,-0.901745 -0.727689,-1.108824 -1.475409,-2.20481 -2.209879,-3.309146 -0.191916,-0.206135 -0.320289,-0.499809 -0.575747,-0.618406 -0.101317,-0.04704 -0.182983,0.143023 -0.228677,0.244952 -0.212431,0.473882 -0.298495,1.549503 -0.774983,1.874411 -0.101319,0.06909 -0.245157,-0.0071 -0.367736,-0.01066 -0.08927,-0.160395 -0.226219,-0.302397 -0.267814,-0.481189 -0.29292,-1.259129 0.430768,-3.010287 1.142407,-4.024784 0.132898,-0.189455 0.321712,-0.332742 0.482569,-0.499115 z" />
      <path
         style="fill:#000000;stroke:#000000;stroke-width:0.499999;stroke-dasharray:none"
         id="path31"
         d="m 37.832641,42.897935 c 0.97587,2.934375 1.784276,5.918266 2.845929,8.82401 0.404157,1.074698 0.290484,0.583798 0.422728,1.451354 0,0 0.02,-2.65e-4 0.02,-2.65e-4 v 0 c -0.132222,-0.867971 -0.01852,-0.376944 -0.422738,-1.451753 -1.061685,-2.905715 -1.870075,-5.88959 -2.845927,-8.823952 z" />
      <path
         style="fill:#000000;stroke:#000000;stroke-width:0.499999;stroke-dasharray:none"
         id="path32"
         d="m 43.127424,42.00879 c 1.003051,3.558735 2.201976,7.05672 3.403457,10.55203 0.539004,1.597504 0.411724,0.909743 0.548656,2.025314 0,0 0.02,-2.44e-4 0.02,-2.44e-4 v 0 c -0.136912,-1.115983 -0.0096,-0.42809 -0.548667,-2.025732 -1.201473,-3.495275 -2.4004,-6.993223 -3.403452,-10.551924 z" />
      <path
         style="fill:#000000;stroke:#000000;stroke-width:0.499999;stroke-dasharray:none"
         id="path35"
         d="m 36.145385,49.337761 c 1.960652,-1.848109 3.852185,-3.774517 5.733304,-5.704678 0,0 -0.01995,-0.0016 -0.01995,-0.0016 v 0 c -1.881095,1.930112 -3.77254,3.856545 -5.733288,5.704475 z" />
      <path
         style="fill:#000000;stroke:#000000;stroke-width:0.499999;stroke-dasharray:none"
         id="path36"
         d="m 42.380355,49.337671 c 1.362731,-1.297294 2.754831,-2.584024 4.236913,-3.74609 0.504235,-0.395361 1.034933,-0.755758 1.552403,-1.133636 0,0 -0.01992,-0.0019 -0.01992,-0.0019 v 0 c -0.517473,0.377923 -1.048169,0.73837 -1.552414,1.133768 -1.482077,1.162146 -2.874222,2.448878 -4.236929,3.746265 z" />
      <path
         style="fill:#000000;stroke:#000000;stroke-width:0.499999;stroke-dasharray:none"
         id="path37"
         d="m 48.957227,41.560345 c 0.946861,3.683854 1.7262,7.409383 2.545731,11.123313 0.07845,0.345818 0.156895,0.691634 0.235341,1.037452 0,0 0.02,-5.29e-4 0.02,-5.29e-4 v 0 C 51.679849,53.374768 51.601406,53.028955 51.52296,52.683142 50.703421,48.969173 49.924064,45.243609 48.977224,41.559704 Z" />
      <path
         style="fill:#000000;stroke:#000000;stroke-width:0.499999;stroke-dasharray:none"
         id="path38"
         d="m 54.350742,49.337835 c 1.091607,-0.710729 2.129581,-1.511086 3.038673,-2.447242 0.193363,-0.199123 0.391036,-0.397291 0.552027,-0.623393 0.09773,-0.137253 0.144621,-0.304374 0.216932,-0.456562 -0.05522,-0.09522 -0.0654,-0.240237 -0.165664,-0.285655 -0.370956,-0.16804 -1.078441,0.172773 -1.302639,0.325689 -0.724222,0.493964 -1.499356,1.401786 -1.941412,2.131144 -0.267573,0.441474 -0.437821,0.935035 -0.656732,1.402551 0.01627,0.461156 -0.09717,0.94573 0.04883,1.38347 0.699958,2.098667 3.508068,2.073211 5.208627,1.597525 0.383558,-0.107292 0.735063,-0.306917 1.102595,-0.460375 0,0 -0.01987,-0.0024 -0.01987,-0.0024 v 0 c -0.367511,0.153316 -0.719457,0.351224 -1.10254,0.459947 -1.692026,0.480208 -4.473638,0.487815 -5.16882,-1.594821 -0.146005,-0.437404 -0.03256,-0.921682 -0.04885,-1.382522 0.218903,-0.467376 0.389152,-0.960798 0.656709,-1.402125 0.455779,-0.751798 1.205312,-1.617372 1.941322,-2.130129 0.234185,-0.163152 0.892043,-0.492747 1.262798,-0.326953 0.09997,0.04471 0.110437,0.189142 0.165656,0.283715 -0.0723,0.152 -0.119229,0.318916 -0.216898,0.456001 -0.16103,0.226018 -0.358661,0.424157 -0.552016,0.623226 -0.909145,0.93602 -1.947135,1.736199 -3.038647,2.44696 z" />
      <path
         style="fill:#000000;stroke:#000000;stroke-width:0.499999;stroke-dasharray:none"
         id="path39"
         d="m 35.92464,62.954481 c -1.089085,0.567857 -2.098119,1.267918 -2.852393,2.250102 -0.179774,0.234095 -0.366194,0.470019 -0.487998,0.738875 -0.08783,0.193868 -0.08664,0.416758 -0.129958,0.625136 0.922647,1.07591 2.242818,1.678406 3.235526,2.680605 0.382845,0.386503 0.783201,0.783394 1.022784,1.27182 0.603827,1.230996 0.303102,1.76584 0.07476,3.006392 -0.277971,0.421526 -0.491228,0.893741 -0.833911,1.264576 -1.159452,1.25471 -2.902482,1.826332 -4.526016,2.146967 -1.536139,0.303374 -1.102389,0.35183 -2.164016,-0.305414 0,0 -0.0199,0.0021 -0.0199,0.0021 v 0 c 0.268174,0.158112 0.496163,0.431527 0.804522,0.474342 0.465306,0.06461 0.938365,-0.07726 1.399219,-0.168362 1.623809,-0.320993 3.366831,-0.893101 4.526153,-2.14842 0.342728,-0.371107 0.555961,-0.843586 0.833943,-1.26538 0.228333,-1.241187 0.52909,-1.776463 -0.07481,-3.008109 -0.239548,-0.488563 -0.639929,-0.885605 -1.022815,-1.272227 -0.992272,-1.001959 -2.311273,-1.604828 -3.235449,-2.678433 0.04331,-0.208127 0.04215,-0.430763 0.129926,-0.62438 0.12184,-0.268755 0.30821,-0.504608 0.487981,-0.738611 0.754306,-0.981852 1.76334,-1.681675 2.852312,-2.249233 z" />
      <path
         style="fill:#000000;stroke:#000000;stroke-width:0.499999;stroke-dasharray:none"
         id="path40"
         d="m 40.370169,71.991216 c 0.210109,-2.885318 -0.138448,-5.779015 -0.866732,-8.571761 -0.04141,-0.04818 -0.101674,-0.203912 -0.124222,-0.144524 -0.130202,0.342924 0.151649,1.539 0.17046,1.631149 0.100931,0.494397 0.416126,1.869932 0.624533,2.37282 0.08945,0.215852 0.248471,0.395777 0.372706,0.593667 0.695105,0.181792 0.949052,-0.718439 1.558515,-0.791432 0.712959,-0.08539 1.260723,1.19022 1.502164,1.63259 0.111863,0.291798 0.223723,0.583599 0.335584,0.8754 0.08444,0.241792 0.163031,0.485706 0.253317,0.725379 0.04866,0.129162 0.07018,0.278625 0.163283,0.380516 0.03477,0.03804 0.09996,-0.02516 0.149936,-0.03775 0,0 -0.01984,-0.0026 -0.01984,-0.0026 v 0 c -0.03671,0.01318 -0.08572,0.06992 -0.110117,0.0395 -0.08633,-0.107638 -0.114634,-0.251256 -0.163277,-0.380376 -0.0903,-0.239688 -0.168881,-0.483626 -0.25332,-0.72544 -0.111866,-0.291888 -0.223729,-0.583779 -0.335595,-0.875667 -0.274688,-0.503508 -0.737495,-1.727063 -1.542032,-1.633683 -0.597043,0.0693 -0.847899,0.943345 -1.518655,0.792403 -0.124227,-0.19771 -0.283263,-0.377431 -0.372684,-0.593127 -0.208383,-0.502661 -0.523626,-1.878433 -0.624525,-2.372582 -0.0058,-0.02864 -0.283877,-1.362438 -0.210408,-1.629384 0.0168,-0.06102 0.08279,0.09574 0.124177,0.143611 0.728335,2.792563 1.076815,5.686107 0.866728,8.571253 z" />
      <path
         style="fill:#000000;stroke:#000000;stroke-width:0.499999;stroke-dasharray:none"
         id="path41"
         d="m 47.2778,68.757587 c -0.218324,-0.733864 -0.373573,-1.471689 -0.427495,-2.235242 -0.06059,-0.209904 -0.0039,-0.131389 -0.146116,-0.251055 0,0 -0.01992,0.0019 -0.01992,0.0019 v 0 c 0.142275,0.118089 0.08551,0.04023 0.14604,0.249449 0.05392,0.763601 0.209044,1.501505 0.427498,2.235385 z" />
      <path
         style="fill:#000000;stroke:#000000;stroke-width:0.499999;stroke-dasharray:none"
         id="path42"
         d="m 49.991766,66.448836 c -0.04558,2.253467 0.142589,4.502049 0.344369,6.744353 0.02209,0.15044 0.01336,0.308767 0.06627,0.451319 0.02635,0.071 0.01852,-0.150818 0.01714,-0.226534 -0.0052,-0.289486 -0.02625,-0.578477 -0.03686,-0.867812 -0.01725,-0.47012 -0.07496,-0.940943 -0.04675,-1.410531 0.0989,-1.646616 0.383575,-2.755405 0.710523,-4.373869 0.196022,-0.642147 0.350224,-1.298578 0.588068,-1.926437 0.181444,-0.478975 0.991878,-2.543926 1.931437,-2.337548 0.179253,0.03937 0.339522,0.198567 0.409218,0.368345 0.109458,0.266636 0.06321,0.572984 0.09481,0.859477 -0.05033,1.061625 -0.432888,2.014482 -1.065964,2.862398 -0.122971,0.1647 -0.663705,0.821367 -0.993114,0.869884 -0.10959,0.01614 -0.193381,-0.108107 -0.29007,-0.162158 0,0 -0.01987,0.0021 -0.01987,0.0021 v 0 c 0.109951,0.05401 0.208545,0.179092 0.329848,0.162034 0.327039,-0.04599 0.873681,-0.710668 0.993191,-0.87081 0.633129,-0.848392 1.015709,-1.801688 1.06599,-2.863739 -0.03163,-0.286993 0.02185,-0.596902 -0.09489,-0.860978 -0.07835,-0.177226 -0.259371,-0.329268 -0.448971,-0.369255 -0.942928,-0.198858 -1.747338,1.853099 -1.931601,2.339586 -0.237837,0.627928 -0.392049,1.28442 -0.588074,1.92663 -0.326998,1.618834 -0.611608,2.727346 -0.710525,4.374335 -0.0282,0.469595 0.0295,0.940424 0.04675,1.410549 0.01061,0.289317 0.02109,0.57867 0.03686,0.867754 0.0041,0.07568 0.03721,0.300633 0.02286,0.226216 -0.0288,-0.149262 -0.04418,-0.300805 -0.06627,-0.451207 -0.201779,-2.242246 -0.389948,-4.490768 -0.344369,-6.744174 z" />
      <path
         style="fill:#000000;stroke:#000000;stroke-width:0.499999;stroke-dasharray:none"
         id="path43"
         d="m 45.825899,62.144846 c -0.16024,0.02238 -0.242025,0.942046 -0.346932,1.011605 -0.03823,0.02535 -0.02643,-0.08802 -0.04416,-0.130328 -0.06047,-0.144259 -0.02663,-0.11338 -0.163753,-0.108252 -0.32089,0.270036 -0.0079,0.609812 0.07021,0.19698 0,0 -0.02,-2.65e-4 -0.02,-2.65e-4 v 0 c -0.07947,0.417351 -0.316884,0.03392 -0.03044,-0.19359 0.141589,-0.01286 0.149148,0.264845 0.208134,0.236177 0.04725,-0.02297 0.249481,-1.023421 0.346919,-1.011287 z" />
    </g>
  </g>
</svg>
