<?xml version="1.0" encoding="UTF-8" standalone="no"?>
<!-- Created with Inkscape (http://www.inkscape.org/) -->

<svg
   width="100mm"
   height="100mm"
   viewBox="0 0 100 100"
   version="1.1"
   id="svg1"
   inkscape:version="1.4 (86a8ad7, 2024-10-11)"
   sodipodi:docname="messageBoardHandArt.svg"
   xmlns:inkscape="http://www.inkscape.org/namespaces/inkscape"
   xmlns:sodipodi="http://sodipodi.sourceforge.net/DTD/sodipodi-0.dtd"
   xmlns="http://www.w3.org/2000/svg"
   xmlns:svg="http://www.w3.org/2000/svg">
  <sodipodi:namedview
     id="namedview1"
     pagecolor="#ffffff"
     bordercolor="#000000"
     borderopacity="0.25"
     inkscape:showpageshadow="2"
     inkscape:pageopacity="0.0"
     inkscape:pagecheckerboard="0"
     inkscape:deskcolor="#d1d1d1"
     inkscape:document-units="mm"
     inkscape:zoom="1.18"
     inkscape:cx="200.42373"
     inkscape:cy="216.52542"
     inkscape:window-width="1920"
     inkscape:window-height="1017"
     inkscape:window-x="-8"
     inkscape:window-y="-2"
     inkscape:window-maximized="1"
     inkscape:current-layer="layer1" />
  <defs
     id="defs1">
    <inkscape:path-effect
       effect="powerstroke"
       message=""
       id="path-effect14"
       is_visible="true"
       lpeversion="1.3"
       scale_width="1"
       interpolator_type="CentripetalCatmullRom"
       interpolator_beta="0.75"
       start_linecap_type="round"
       end_linecap_type="round"
       offset_points="155.80893,5.4662575"
       linejoin_type="spiro"
       miter_limit="4"
       not_jump="true"
       sort_points="true" />
    <inkscape:path-effect
       effect="simplify"
       id="path-effect13"
       is_visible="true"
       lpeversion="1.3"
       threshold="0.012"
       steps="1"
       smooth_angles="0"
       helper_size="0"
       simplify_individual_paths="false"
       simplify_just_coalesce="false"
       step="1" />
    <inkscape:path-effect
       effect="powerstroke"
       message=""
       id="path-effect12"
       is_visible="true"
       lpeversion="1.3"
       scale_width="1"
       interpolator_type="CentripetalCatmullRom"
       interpolator_beta="0.75"
       start_linecap_type="round"
       end_linecap_type="round"
       offset_points="211.04914,5.4662575"
       linejoin_type="spiro"
       miter_limit="4"
       not_jump="true"
       sort_points="true" />
    <inkscape:path-effect
       effect="simplify"
       id="path-effect11"
       is_visible="true"
       lpeversion="1.3"
       threshold="0.012"
       steps="1"
       smooth_angles="0"
       helper_size="0"
       simplify_individual_paths="false"
       simplify_just_coalesce="false"
       step="1" />
    <inkscape:path-effect
       effect="powerstroke"
       message=""
       id="path-effect10"
       is_visible="true"
       lpeversion="1.3"
       scale_width="1"
       interpolator_type="CentripetalCatmullRom"
       interpolator_beta="0.75"
       start_linecap_type="round"
       end_linecap_type="round"
       offset_points="120.14373,5.4662575"
       linejoin_type="spiro"
       miter_limit="4"
       not_jump="true"
       sort_points="true" />
    <inkscape:path-effect
       effect="simplify"
       id="path-effect9"
       is_visible="true"
       lpeversion="1.3"
       threshold="0.012"
       steps="1"
       smooth_angles="0"
       helper_size="0"
       simplify_individual_paths="false"
       simplify_just_coalesce="false"
       step="1" />
  </defs>
  <g
     inkscape:label="Layer 1"
     inkscape:groupmode="layer"
     id="layer1">
    <path
       style="fill:#000000;stroke:#000000;stroke-width:0.499999;stroke-dasharray:none"
       id="path69"
       d="m 28.399766,75.846079 c -0.227557,-2.229564 -0.07106,-4.476694 0.03517,-6.709344 0.02199,1.221457 0.0164,-0.987171 0.0512,-0.741775 0.04174,0.294508 -0.03232,0.594027 -0.05037,0.890929 -0.08454,1.390489 -0.02172,0.576998 -0.15581,2.044745 0.133548,-0.07998 -0.358125,1.957012 -0.0075,1.837224 0.246213,-0.08411 0.817232,-1.116774 0.820536,-1.122122 0.215572,-0.34863 0.428752,-0.698732 0.643128,-1.048101 0.244121,-0.418346 0.809869,-1.407319 1.105255,-1.846848 0.110175,-0.163938 0.192646,-0.366461 0.360836,-0.470027 0.361945,-0.222871 0.424402,0.885762 0.485182,1.515825 0.08353,0.804989 -0.04184,1.617564 0.03654,2.422215 0.01079,0.110739 -0.01593,0.259726 0.07379,0.325525 0.192712,0.141332 0.500057,-0.303768 0.754864,-0.577768 0.768345,-1.003808 1.436772,-2.079567 2.183339,-3.098726 0.168645,-0.230222 0.292497,-0.513606 0.529233,-0.672973 0.09307,-0.06265 0.272658,-7.94e-4 0.321225,0.100457 0.125037,0.260363 0.0919,0.570304 0.137843,0.855456 0.06265,1.425385 -0.0617,2.847827 -0.124997,4.270206 -0.04691,1.054105 -0.07377,0.727456 0.01085,1.354873 0,0 0.02,-2.65e-4 0.02,-2.65e-4 v 0 c -0.08468,-0.627123 -0.05776,-0.300458 -0.01085,-1.354494 0.0633,-1.422522 0.187656,-2.845107 0.124997,-4.270635 -0.046,-0.285903 -0.0041,-0.600942 -0.138006,-0.857705 -0.05771,-0.110656 -0.25612,-0.166841 -0.361016,-0.09922 -0.239893,0.154636 -0.360585,0.442839 -0.529241,0.67309 -0.74649,1.019119 -1.414883,2.094801 -2.183321,3.098445 -0.297111,0.318865 -0.568428,0.698717 -0.714925,0.578821 -0.08601,-0.07039 -0.06301,-0.214529 -0.07379,-0.325144 -0.07841,-0.80469 0.04703,-1.617316 -0.03654,-2.422342 -0.02302,-0.238813 -0.06051,-1.140579 -0.24311,-1.419365 -0.0545,-0.08321 -0.195964,-0.147466 -0.282027,-0.09758 -0.170937,0.09909 -0.250656,0.30624 -0.36085,0.470234 -0.295322,0.439512 -0.861147,1.428541 -1.105257,1.84685 -0.214373,0.349363 -0.427529,0.699476 -0.643125,1.048088 -0.159319,0.257612 -0.308629,0.521923 -0.481611,0.770567 -0.08784,0.126265 -0.155072,0.297196 -0.298992,0.35147 -0.07174,0.02705 -0.122074,-0.113392 -0.130154,-0.189632 -0.02418,-0.228166 0.128662,-1.559033 0.137668,-1.646211 0.134049,-1.467437 0.0713,-0.65464 0.155811,-2.0448 0.01294,-0.213011 0.03774,-0.425556 0.04022,-0.638945 0.0011,-0.08469 0.02053,-0.184248 -0.02985,-0.252323 -0.147479,-0.199242 0.307544,1.824823 -0.0512,0.741894 -0.106241,2.232824 -0.262721,4.480129 -0.03517,6.709873 z" />
    <path
       style="fill:#000000;stroke:#000000;stroke-width:0.499999;stroke-dasharray:none"
       id="path70"
       d="m 37.128838,71.984438 c 0.515951,-0.369951 1.714371,-1.245262 1.494645,-2.024335 -0.02957,-0.104852 -0.121126,-0.181113 -0.181687,-0.271669 -0.09379,-0.01376 -0.202665,-0.09406 -0.281374,-0.04123 -0.414088,0.277929 -0.697981,1.084715 -0.817374,1.470422 -0.200351,0.647242 -0.381683,1.602036 -0.327478,2.290439 0.0241,0.306105 0.148352,0.595916 0.222528,0.893874 0.179644,0.17258 0.315185,0.408226 0.538933,0.517737 0.218516,0.106952 0.480459,0.119097 0.722987,0.0999 0.851995,-0.06743 1.346401,-0.661482 1.855255,-1.25857 0,0 -0.01995,-0.0013 -0.01995,-0.0013 v 0 c -0.165217,0.193725 -0.309483,0.407487 -0.495647,0.581181 -0.506735,0.472787 -1.328872,0.925383 -2.04271,0.577286 -0.22366,-0.109066 -0.359251,-0.34441 -0.538874,-0.516614 -0.07417,-0.29776 -0.198425,-0.587365 -0.222523,-0.893276 -0.05421,-0.688128 0.12713,-1.642817 0.327464,-2.289773 0.09057,-0.292494 0.422987,-1.216044 0.777592,-1.468353 0.07713,-0.05488 0.187471,0.02638 0.281205,0.03956 0.06055,0.09016 0.152085,0.165976 0.181652,0.270481 0.219948,0.777452 -0.979805,1.653445 -1.494544,2.022322 z" />
    <path
       style="display:inline;fill:#000000;stroke:#000000;stroke-width:0.499999;stroke-dasharray:none"
       id="path71"
       d="m 41.073924,68.104553 c -0.25441,0.634876 -0.476903,1.343107 -0.122994,1.997237 0.294127,0.543637 0.957569,0.802598 1.467252,1.079108 0.128439,0.113499 0.290954,0.197406 0.385318,0.340495 0.462875,0.701889 -0.14124,1.681594 -0.593238,2.206855 -0.128916,0.14981 -0.28497,0.273931 -0.427453,0.410898 -0.07683,0.0011 -0.153662,0.0024 -0.230494,0.0034 0,0 0.01976,0.0031 0.01976,0.0031 v 0 c 0.07689,-0.0016 0.153778,-0.0033 0.230666,-0.0049 0.142494,-0.137086 0.298564,-0.261329 0.42748,-0.411252 0.45262,-0.526378 1.056058,-1.506773 0.593206,-2.2098 -0.09431,-0.143254 -0.256908,-0.227298 -0.38536,-0.340948 -0.509156,-0.276113 -1.173025,-0.534683 -1.467147,-1.077528 -0.354099,-0.65354 -0.131177,-1.361501 0.122987,-1.995837 z" />
    <path
       style="fill:#000000;stroke:#000000;stroke-width:0.499999;stroke-dasharray:none"
       id="path72"
       d="m 46.274346,66.180863 c -0.207658,0.599731 -0.801248,1.722038 -0.288194,2.317047 0.268711,0.311636 0.73062,0.36242 1.090057,0.453911 0.469826,0.09988 1.186857,0.254079 1.198771,0.893125 0.01349,0.723553 -0.70512,1.474176 -1.132483,1.971754 -0.190021,0.166373 -0.677852,0.6506 -0.981993,0.738291 -0.07959,0.02294 -0.159456,-0.04491 -0.239183,-0.06736 0,0 -0.01982,0.0026 -0.01982,0.0026 v 0 c 0.09297,0.02228 0.186695,0.09202 0.278902,0.06679 0.296196,-0.08106 0.803153,-0.582216 0.982049,-0.738931 0.428088,-0.498676 1.146061,-1.249088 1.132517,-1.973967 -0.01196,-0.639908 -0.72784,-0.795075 -1.19893,-0.894966 -0.358101,-0.0908 -0.821682,-0.141795 -1.089896,-0.452022 -0.513201,-0.593582 0.08092,-1.716799 0.288187,-2.315371 z" />
    <path
       style="fill:#000000;stroke:#000000;stroke-width:0.499999;stroke-dasharray:none"
       id="path74"
       d="m 56.769552,67.569434 c -0.130378,0.280995 -0.67193,1.0254 -0.518165,1.36054 0.02558,0.05574 0.134922,0.02519 0.183578,-0.01214 0.256861,-0.197065 0.496742,-0.682848 0.641615,-0.930908 0.09061,-0.0965 0.144939,-0.327199 0.271836,-0.289509 0.145282,0.04315 0.153058,0.270697 0.171349,0.421145 0.04888,0.402058 0.05457,0.810628 0.02753,1.214742 -0.133516,1.99558 -0.67066,3.894121 -1.236252,5.799121 -0.05796,0.11343 -0.646782,1.752336 -1.280001,1.766615 -0.408086,0.0092 -0.362469,-0.861182 -0.16288,-1.504873 0.423187,-1.364827 1.030417,-2.016355 1.856631,-3.217116 0.490971,-0.608804 0.96856,-1.228649 1.472914,-1.826411 2.587043,-3.066177 0.36766,-0.297797 2.609385,-2.952713 0.258482,-0.306126 0.531243,-0.604155 0.746373,-0.942155 0.08322,-0.130749 0.211913,-0.309293 0.136245,-0.444555 -0.05474,-0.09786 -0.201105,0.09924 -0.301657,0.148867 -0.159877,0.226214 -0.368289,0.424993 -0.479631,0.678635 -0.142388,0.324374 -0.285581,0.674119 -0.269526,1.028005 0.03725,0.821036 0.551574,1.442582 1.276853,1.773499 1.009295,0.460502 1.335984,0.226229 2.309595,1.35e-4 0,0 -0.01982,-0.0027 -0.01982,-0.0027 v 0 c -0.960734,0.231531 -1.261676,0.459795 -2.269855,7.93e-4 -0.72489,-0.330067 -1.23951,-0.950719 -1.276779,-1.771189 -0.01606,-0.35365 0.127101,-0.70317 0.269494,-1.027287 0.11131,-0.253365 0.319701,-0.451806 0.479552,-0.677707 0.08726,-0.05054 0.221964,-0.244268 0.261782,-0.151622 0.0611,0.142174 -0.05308,0.313285 -0.136208,0.443812 -0.215201,0.337921 -0.487897,0.635953 -0.746366,0.942049 -1.351811,1.600904 -2.845488,3.081425 -4.082317,4.779365 -0.826026,1.200724 -1.433803,1.853096 -1.856663,3.218061 -0.187264,0.604475 -0.275005,1.517501 0.20279,1.507003 0.632298,-0.01389 1.223198,-1.656557 1.28008,-1.767909 0.565608,-1.905201 1.102789,-3.803957 1.236261,-5.799743 0.02705,-0.404384 0.03095,-0.814504 -0.02755,-1.215549 -0.0227,-0.155604 -0.05957,-0.3804 -0.211275,-0.421799 -0.127818,-0.03488 -0.181242,0.193305 -0.271862,0.289957 -0.109318,0.187076 -0.204843,0.382926 -0.327951,0.561229 -0.12891,0.186708 -0.641091,0.769064 -0.431173,0.02834 0.0516,-0.182089 0.139237,-0.352406 0.222462,-0.522388 0.08102,-0.165486 0.179718,-0.321717 0.269576,-0.482576 z" />
    <path
       style="display:inline;fill:#000000;stroke:#000000;stroke-width:0.499999;stroke-dasharray:none"
       id="path75"
       d="m 36.538376,85.283581 c 0,0.335029 0,0.670055 0,1.005084 0,0.132765 -0.115134,0.464415 0,0.398298 0.136348,-0.0783 0.08075,-0.304403 0.106571,-0.459499 0.130181,-0.781886 0.153096,-1.367105 0.217737,-2.187326 0.08354,-1.33386 0.135704,-2.669697 0.160988,-4.005906 0.01392,-0.736015 0.03642,-1.467363 -0.03754,-2.199915 -0.02119,-0.06775 -0.0424,-0.135506 -0.06361,-0.203258 0,0 -0.01998,5.29e-4 -0.01998,5.29e-4 v 0 c 0.02119,0.06762 0.0424,0.135234 0.0636,0.202851 0.07398,0.732462 0.05146,1.463736 0.03754,2.199664 -0.02529,1.336174 -0.07745,2.671974 -0.160988,4.005799 -0.114689,1.455232 -0.05493,0.991455 -0.217734,2.187109 -0.0209,0.153472 0.04714,0.354703 -0.06657,0.459873 -0.09747,0.09015 0,-0.265534 0,-0.398299 0,-0.335028 0,-0.670054 0,-1.005083 z" />
    <path
       style="fill:#000000;stroke:#000000;stroke-width:0.499999;stroke-dasharray:none"
       id="path76"
       d="m 36.145385,78.038327 c 0.222292,-0.131154 0.483505,-0.211828 0.666877,-0.39346 0.142653,-0.141298 0.153548,-0.375467 0.272632,-0.537125 0.141901,-0.192638 0.33065,-0.346014 0.501385,-0.513628 0.360895,-0.3543 0.645213,-0.593444 1.117815,-0.756816 0.382838,0.0755 0.867261,0.500687 0.895588,0.913526 0.01093,0.159415 -0.03944,0.317133 -0.05916,0.4757 -0.303577,0.948963 -0.918747,1.740567 -1.518176,2.519691 -0.144423,0.187716 -0.248827,0.419552 -0.442434,0.555979 -0.255709,0.180192 -0.576371,0.243348 -0.864555,0.365019 0.19236,-0.247607 -0.416644,0.374465 -0.260101,0.396648 0.724823,0.102708 1.320803,-0.218784 2.016908,-0.306782 0.233333,-0.0295 0.469842,-0.02254 0.704763,-0.03382 0.202075,0.03749 0.419473,0.02666 0.606224,0.112471 0.977016,0.448935 0.835699,1.763906 0.386368,2.528396 -0.171715,0.292155 -0.422682,0.529817 -0.634024,0.794726 -0.528526,0.425188 -1.07946,0.9446 -1.735788,1.184394 -0.3844,0.140444 -0.798327,0.180935 -1.199414,0.262268 -0.253614,0.05143 -0.51479,0.06742 -0.764329,0.135943 -0.02291,0.0063 0.01196,0.046 0.01791,0.06901 -0.08438,-0.05265 -0.16876,-0.105293 -0.253138,-0.15794 -0.04157,-0.09836 -0.08315,-0.196718 -0.124719,-0.295077 0,0 -0.01998,7.94e-4 -0.01998,7.94e-4 v 0 c 0.0416,0.09879 0.08321,0.197575 0.124812,0.296363 0.0976,0.05299 0.183441,0.139567 0.292785,0.158966 0.518517,0.09199 1.036145,0.141066 1.515176,-0.112312 0.16465,-0.08709 0.274648,-0.254339 0.430781,-0.355907 1.867202,-1.214639 -0.09825,0.291224 1.735855,-1.185159 0.211352,-0.265115 0.462351,-0.502992 0.634058,-0.795351 0.443333,-0.754848 0.597434,-2.09478 -0.386551,-2.53189 -0.199702,-0.08872 -0.430533,-0.07515 -0.6458,-0.112729 -0.923259,0.0447 -0.486008,-0.01326 -1.381599,0.175014 -0.190608,0.04007 -0.40364,0.02281 -0.571547,0.121531 -0.07433,0.0437 0.163864,0.07633 0.249655,0.06771 0.1411,-0.01418 -0.314013,-0.726577 0.252762,-0.342196 -0.03552,-0.146251 -0.154707,-0.296158 -0.106561,-0.438753 0.07577,-0.224417 0.298013,-0.368305 0.442439,-0.556043 0.599585,-0.779402 1.214847,-1.571339 1.518216,-2.520722 0.01971,-0.158899 0.07009,-0.316953 0.05914,-0.476692 -0.007,-0.101931 -0.06497,-0.194538 -0.111376,-0.285557 -0.173535,-0.340334 -0.440142,-0.575974 -0.824042,-0.629695 -0.472382,0.164002 -0.757042,0.403442 -1.11791,0.75774 -0.170725,0.167616 -0.315097,0.363479 -0.501383,0.513612 -0.234656,0.189113 -0.540207,0.28634 -0.754345,0.498406 -0.111318,0.110239 -0.123431,0.287994 -0.185148,0.43199 z" />
    <path
       style="display:inline;fill:#000000;stroke:#000000;stroke-width:0.499999;stroke-dasharray:none"
       id="path77"
       d="m 43.678038,80.660882 c -0.392004,0.853342 -1.045292,2.160206 -0.525822,3.094495 0.08226,0.147952 0.215683,0.281027 0.3722,0.345519 0.141427,0.05827 0.305916,-0.0021 0.458874,-0.0031 0.129263,-0.117115 0.305867,-0.197355 0.38779,-0.351348 0.378383,-0.71124 0.02376,-1.723978 -0.336857,-2.361063 -0.08823,-0.155871 -0.236236,-0.269277 -0.354357,-0.403912 0,0 -0.01995,0.0013 -0.01995,0.0013 v 0 c 0.118107,0.134417 0.266123,0.247566 0.354319,0.403252 0.36022,0.635868 0.715462,1.648592 0.336912,2.358615 -0.08189,0.153596 -0.258413,0.233272 -0.387617,0.349906 -0.139729,0.0016 -0.29079,0.0597 -0.419184,0.0046 -1.15329,-0.495319 -0.215308,-2.71785 0.153654,-3.437194 z" />
    <path
       style="display:inline;fill:#000000;stroke:#000000;stroke-width:0.499999;stroke-dasharray:none"
       id="path79"
       d="m 51.313818,84.228987 c -0.229664,-1.103617 -0.321755,-2.239762 -0.619715,-3.329141 -0.06762,0.36408 -0.154091,0.834567 -0.01439,1.195321 0.02077,0.05361 0.05186,0.140912 0.108911,0.13375 0.106629,-0.01339 0.177892,-0.120627 0.266837,-0.180941 0.846045,-0.936659 1.502273,-2.024663 2.332249,-2.972276 0.07666,-0.09394 0.153324,-0.187873 0.229987,-0.281811 0,0 -0.01995,-0.0013 -0.01995,-0.0013 v 0 c -0.07666,0.09391 -0.153321,0.187828 -0.229981,0.281742 -0.829733,0.947669 -1.485918,2.035543 -2.332215,2.97184 -0.07566,0.06048 -0.131114,0.167542 -0.226972,0.181443 -0.24142,0.03501 -0.14214,-1.189985 -0.13447,-1.327166 0.298093,1.089255 0.389967,2.225381 0.619707,3.32889 z" />
    <path
       style="fill:#000000;stroke:#000000;stroke-width:0.499999;stroke-dasharray:none"
       id="path80"
       d="m 57.230192,82.659708 c 0.406929,-2.410359 0.424296,-4.868291 0.28435,-7.30215 -0.03444,-0.291246 -0.06888,-0.582494 -0.103325,-0.873739 -0.03167,-0.03309 -0.07926,-0.14229 -0.095,-0.09928 -0.112371,0.307179 -0.134054,1.465321 -0.139631,1.632593 -0.07894,2.367325 0.03487,0.01521 -0.07845,2.162574 -0.290341,1.660904 -1.151961,0.537634 -1.993162,1.397471 -0.2267,0.231722 -0.356957,0.541235 -0.535434,0.81185 -0.138528,0.373021 -0.314677,0.734153 -0.415582,1.119056 -0.172918,0.659617 -0.529007,2.346901 0.418114,2.707804 0.580231,0.221099 1.1816,-0.182904 1.655963,-0.398159 0.215098,-0.161311 0.430197,-0.322622 0.645292,-0.48393 0,0 -0.01992,-0.0019 -0.01992,-0.0019 v 0 c -0.215082,0.161165 -0.430165,0.322331 -0.645247,0.483496 -0.441595,0.199991 -1.067371,0.613196 -1.616157,0.3989 -0.946745,-0.369695 -0.593302,-2.0373 -0.418063,-2.705548 0.100896,-0.384757 0.277037,-0.745733 0.415557,-1.1186 0.178451,-0.270298 0.308698,-0.579525 0.535356,-0.810895 0.840766,-0.858237 1.703096,0.262819 1.993275,-1.399487 0.113334,-2.147792 -5.29e-4,0.20505 0.07845,-2.162587 0.01135,-0.340461 0.02643,-0.680845 0.04721,-1.020858 0.01246,-0.203803 -0.004,-0.414076 0.05249,-0.610296 0.01257,-0.0437 0.06329,0.06532 0.09493,0.09798 0.03444,0.291206 0.06888,0.582412 0.103325,0.873618 0.139948,2.43373 0.122568,4.891524 -0.284348,7.301751 z" />
    <path
       style="fill:#000000;stroke:#000000;stroke-width:0.499999;stroke-dasharray:none"
       id="path81"
       d="m 52.422787,67.395703 c -0.741619,0.370234 -1.39795,0.843693 -1.815648,1.566997 -0.191198,0.464053 -0.625639,1.161402 -0.290438,1.643735 0.375041,0.303982 0.879853,0.321178 1.335466,0.23871 0.06449,-0.03611 0.140168,-0.05712 0.193458,-0.108339 0.342371,-0.329028 0.248782,-1.157685 0.237945,-1.583608 -0.0083,-0.18388 -0.01929,-0.439449 -0.03012,-0.626179 -0.0066,-0.114438 -0.03358,-0.299434 0.02289,-0.209407 0.03975,0.06336 0.04857,0.141518 0.07512,0.211447 0.04852,0.127817 0.100031,0.254476 0.150045,0.381714 0.445355,1.057926 1.009968,1.709314 2.127803,2.026156 0.430742,0.0504 0.219453,0.04001 0.633664,0.0349 0,0 -0.01976,-0.0031 -0.01976,-0.0031 v 0 c -0.374635,0.0056 -0.176459,0.01408 -0.594075,-0.03439 -1.117883,-0.315876 -1.682276,-0.966676 -2.127649,-2.024319 -0.05002,-0.12727 -0.09432,-0.256937 -0.150048,-0.38181 -0.290748,-0.651412 -0.06717,0.517425 -0.107879,0.625033 0.01082,0.424733 0.10458,1.253895 -0.237831,1.581441 -0.05332,0.051 -0.128921,0.07181 -0.193381,0.10771 -0.4391,0.09304 -0.934516,0.05105 -1.295694,-0.237181 -0.336039,-0.480324 0.100214,-1.178996 0.290449,-1.64147 0.417809,-0.722839 1.074259,-1.195813 1.815552,-1.565835 z" />
    <path
       style="fill:#000000;stroke:#000000;stroke-width:0.499999;stroke-dasharray:none"
       id="path82"
       d="m 47.446631,80.313754 c -0.861,0.160544 -1.493817,0.7279 -1.774669,1.545167 -0.06014,0.503877 -0.177671,1.079679 0.339963,1.35996 0.673513,0.146196 1.082873,-0.05885 1.330941,-0.697515 0.10409,-0.698294 0.02797,-1.408094 -0.0068,-2.109523 -0.08722,0.21395 -0.02925,-0.255035 0.02701,-0.211564 0.112268,0.08676 0.363268,0.617945 0.42151,0.712396 0.0948,0.153736 0.204058,0.298069 0.306086,0.447106 0.357926,0.505606 0.805254,0.934514 1.261531,1.349256 0.209508,0.190434 0.490069,0.528818 0.801423,0.532493 0,0 0.01976,-0.0031 0.01976,-0.0031 v 0 c -0.310883,-0.0011 -0.592558,-0.341366 -0.801248,-0.531016 -0.456232,-0.414618 -0.903587,-0.843341 -1.261499,-1.34882 -0.102023,-0.14896 -0.211307,-0.293203 -0.306073,-0.446884 -0.113077,-0.183369 -0.244821,-0.590946 -0.461425,-0.71298 -0.06242,-0.03517 -0.08958,0.398552 -0.02707,0.213227 0.03478,0.701146 0.110921,1.410677 0.0068,2.108679 -0.242207,0.622433 -0.630444,0.840616 -1.291071,0.696111 -0.517922,-0.278016 -0.399799,-0.854625 -0.339857,-1.357151 0.280995,-0.816732 0.913968,-1.382982 1.774475,-1.542981 z" />
  </g>
</svg>
