<?xml version="1.0" encoding="UTF-8" standalone="no"?>
<!-- Created with Inkscape (http://www.inkscape.org/) -->

<svg
   width="100mm"
   height="100mm"
   viewBox="0 0 100 100"
   version="1.1"
   id="svg1"
   inkscape:version="1.4 (86a8ad7, 2024-10-11)"
   sodipodi:docname="resumeHandArt.svg"
   xmlns:inkscape="http://www.inkscape.org/namespaces/inkscape"
   xmlns:sodipodi="http://sodipodi.sourceforge.net/DTD/sodipodi-0.dtd"
   xmlns="http://www.w3.org/2000/svg"
   xmlns:svg="http://www.w3.org/2000/svg">
  <sodipodi:namedview
     id="namedview1"
     pagecolor="#ffffff"
     bordercolor="#000000"
     borderopacity="0.25"
     inkscape:showpageshadow="2"
     inkscape:pageopacity="0.0"
     inkscape:pagecheckerboard="0"
     inkscape:deskcolor="#d1d1d1"
     inkscape:document-units="mm"
     inkscape:zoom="1.18"
     inkscape:cx="200.42373"
     inkscape:cy="216.52542"
     inkscape:window-width="1920"
     inkscape:window-height="1017"
     inkscape:window-x="-8"
     inkscape:window-y="-2"
     inkscape:window-maximized="1"
     inkscape:current-layer="layer1" />
  <defs
     id="defs1">
    <inkscape:path-effect
       effect="powerstroke"
       message=""
       id="path-effect14"
       is_visible="true"
       lpeversion="1.3"
       scale_width="1"
       interpolator_type="CentripetalCatmullRom"
       interpolator_beta="0.75"
       start_linecap_type="round"
       end_linecap_type="round"
       offset_points="155.80893,5.4662575"
       linejoin_type="spiro"
       miter_limit="4"
       not_jump="true"
       sort_points="true" />
    <inkscape:path-effect
       effect="simplify"
       id="path-effect13"
       is_visible="true"
       lpeversion="1.3"
       threshold="0.012"
       steps="1"
       smooth_angles="0"
       helper_size="0"
       simplify_individual_paths="false"
       simplify_just_coalesce="false"
       step="1" />
    <inkscape:path-effect
       effect="powerstroke"
       message=""
       id="path-effect12"
       is_visible="true"
       lpeversion="1.3"
       scale_width="1"
       interpolator_type="CentripetalCatmullRom"
       interpolator_beta="0.75"
       start_linecap_type="round"
       end_linecap_type="round"
       offset_points="211.04914,5.4662575"
       linejoin_type="spiro"
       miter_limit="4"
       not_jump="true"
       sort_points="true" />
    <inkscape:path-effect
       effect="simplify"
       id="path-effect11"
       is_visible="true"
       lpeversion="1.3"
       threshold="0.012"
       steps="1"
       smooth_angles="0"
       helper_size="0"
       simplify_individual_paths="false"
       simplify_just_coalesce="false"
       step="1" />
    <inkscape:path-effect
       effect="powerstroke"
       message=""
       id="path-effect10"
       is_visible="true"
       lpeversion="1.3"
       scale_width="1"
       interpolator_type="CentripetalCatmullRom"
       interpolator_beta="0.75"
       start_linecap_type="round"
       end_linecap_type="round"
       offset_points="120.14373,5.4662575"
       linejoin_type="spiro"
       miter_limit="4"
       not_jump="true"
       sort_points="true" />
    <inkscape:path-effect
       effect="simplify"
       id="path-effect9"
       is_visible="true"
       lpeversion="1.3"
       threshold="0.012"
       steps="1"
       smooth_angles="0"
       helper_size="0"
       simplify_individual_paths="false"
       simplify_just_coalesce="false"
       step="1" />
  </defs>
  <g
     inkscape:label="Layer 1"
     inkscape:groupmode="layer"
     id="layer1">
    <g
       id="g26"
       transform="translate(10.762712,8.2962571)">
      <path
         style="fill:#000000;stroke:#000000;stroke-width:0.499999;stroke-dasharray:none"
         id="path19"
         d="m 20.791681,51.237456 c 0.849486,3.147494 1.522172,6.338065 2.317977,9.499179 0.06148,0.223854 0.122949,0.447704 0.184424,0.671558 0.01729,0.02733 0.05159,0.114326 0.05186,0.08199 0.0053,-0.633074 -0.145641,-1.257877 -0.205493,-1.888138 -0.210035,-2.211726 -0.183671,-2.455635 -0.275304,-4.810263 0.103424,-2.296313 0.03811,-3.062417 0.51222,-5.277712 0.189806,-0.886878 0.6203,-2.485411 1.260402,-3.276762 0.610424,-0.754657 0.696342,-0.162861 0.957499,0.278932 0.144937,1.905278 -0.559641,3.69715 -1.292556,5.416876 -0.486309,1.141081 -0.362815,0.508298 -0.446399,1.507275 0.172421,0.244943 0.316837,0.512218 0.517262,0.734827 0.470132,0.522172 1.579945,1.411444 2.077631,1.833804 0.809893,0.687313 1.485435,1.297694 2.327122,1.942248 0.320823,0.245684 0.658053,0.469169 0.987078,0.703754 0.2685,0.15212 0.521325,0.336034 0.805495,0.456362 0.204087,0.08642 0.424172,0.156953 0.645795,0.158157 0.427202,0.0024 1.088665,-0.433819 1.087036,-0.915779 -2.65e-4,-0.102946 -0.116414,-0.169825 -0.17462,-0.254738 0,0 -0.01998,0.0013 -0.01998,0.0013 v 0 c 0.0582,0.08424 0.174246,0.150331 0.174598,0.25272 0.0016,0.45058 -0.635791,0.916082 -1.047226,0.913939 -0.221559,-0.0011 -0.441669,-0.07131 -0.645731,-0.157612 -0.284182,-0.120168 -0.536981,-0.30408 -0.805472,-0.45613 C 29.456276,58.4187 29.119046,58.195265 28.798231,57.949612 27.955933,57.304656 27.281608,56.695194 26.471112,56.007396 25.973149,55.58482 24.864126,54.69624 24.39352,54.174109 c -0.200286,-0.222213 -0.344816,-0.488955 -0.517225,-0.733433 0.08359,-0.998281 -0.03984,-0.365694 0.446384,-1.506667 0.733121,-1.720353 1.437677,-3.512828 1.29254,-5.418765 -0.129134,-0.196347 -0.161074,-0.525777 -0.387404,-0.589036 -0.533982,-0.149252 -1.054625,0.975542 -1.296396,1.604208 -0.887505,2.307746 -1.033427,4.820727 -1.086289,7.261561 0.09163,2.354641 0.06527,2.598674 0.275305,4.810427 0.04165,0.43856 0.100907,0.875302 0.157739,1.312156 0.025,0.192137 0.07366,0.381365 0.08772,0.574611 0.0023,0.03208 -0.03456,-0.05426 -0.05183,-0.0814 -0.06147,-0.223838 -0.122948,-0.447675 -0.184422,-0.671515 -0.79582,-3.161144 -1.468527,-6.351744 -2.31798,-9.499283 z" />
      <path
         style="fill:#000000;stroke:#000000;stroke-width:0.499999;stroke-dasharray:none"
         id="path20"
         d="m 30.539795,55.210955 c 0.721294,-0.541364 1.875785,-1.552379 1.897134,-2.537436 0.0029,-0.132387 -0.06528,-0.256664 -0.09792,-0.384998 -0.119985,-0.0097 -0.252727,-0.08369 -0.359963,-0.029 -1.243375,0.63413 -1.068244,3.153717 -0.639365,4.178041 0.184457,0.440555 0.517919,0.802629 0.77688,1.203944 1.070306,0.715383 1.096071,0.913 2.363883,1.093182 0.322762,0.04587 0.651978,-0.0067 0.977966,-0.01011 0,0 -0.01976,-0.0031 -0.01976,-0.0031 v 0 c -0.312793,0.0035 -0.628771,0.05526 -0.938381,0.01061 -1.273906,-0.183714 -1.286412,-0.372356 -2.363743,-1.091713 -0.25895,-0.401082 -0.592399,-0.762905 -0.776854,-1.203249 -0.483621,-1.154535 -0.485833,-2.620314 0.154811,-3.716326 0.107429,-0.183788 0.257209,-0.357625 0.444783,-0.458288 0.105947,-0.05686 0.239831,0.01767 0.359749,0.02652 0.03264,0.128019 0.100785,0.251971 0.09792,0.384053 -0.02135,0.984338 -1.17625,1.995096 -1.897041,2.535923 z" />
      <path
         style="fill:#000000;stroke:#000000;stroke-width:0.499999;stroke-dasharray:none"
         id="path21"
         d="m 36.546178,50.166611 c -0.192656,0.444142 -0.8447,1.534869 -0.853516,1.996725 -0.0032,0.166095 0.07776,0.337511 0.188473,0.461365 0.202345,0.226356 0.859367,0.428379 1.101664,0.518626 0.36694,0.320783 0.751149,0.533074 0.82014,1.078394 0.112699,0.89082 -0.489424,2.131837 -0.924365,2.872814 -0.06705,0.114226 -0.170188,0.202996 -0.255283,0.304495 0,0 0.01995,0.0013 0.01995,0.0013 v 0 c 0.0851,-0.10165 0.188224,-0.190606 0.255309,-0.304953 0.435293,-0.741971 1.037096,-1.982782 0.924367,-2.874635 -0.06901,-0.54592 -0.45307,-0.758465 -0.820266,-1.079931 -0.240337,-0.08938 -0.900068,-0.292388 -1.101535,-0.51698 -0.110638,-0.123335 -0.191632,-0.294288 -0.188468,-0.459946 0.0088,-0.461701 0.6609,-1.552348 0.853504,-1.99635 z" />
      <path
         style="fill:#000000;stroke:#000000;stroke-width:0.499999;stroke-dasharray:none"
         id="path22"
         d="m 39.409991,50.304628 c -0.04703,1.024138 0.07155,2.569292 0.820902,3.355903 0.08164,0.0857 0.20488,0.118589 0.307321,0.177882 0.08904,-0.07303 0.210183,-0.118991 0.267118,-0.21909 0.379095,-0.666475 0.328152,-2.382571 0.306205,-3.174011 0.172879,0.678347 0.402069,1.341906 0.705295,1.973739 0.12973,0.270325 0.407929,0.817962 0.666284,1.053256 0.0575,0.05237 0.144346,0.05796 0.216517,0.08694 0,0 0.01987,-0.0024 0.01987,-0.0024 v 0 c -0.07214,-0.02863 -0.158967,-0.03371 -0.216421,-0.08589 -0.725282,-0.658773 -1.050118,-2.134704 -1.411534,-3.025609 0.02344,0.845109 0.07601,2.434315 -0.306134,3.172265 -0.04835,0.09337 -0.151532,0.145796 -0.227298,0.218691 -0.102417,-0.05898 -0.225647,-0.09146 -0.307247,-0.176956 -0.74929,-0.785053 -0.867894,-2.331593 -0.82087,-3.354456 z" />
      <path
         style="fill:#000000;stroke:#000000;stroke-width:0.499999;stroke-dasharray:none"
         id="path23"
         d="m 45.122142,51.138563 c 0.01886,-0.246298 0.03999,-0.492435 0.05657,-0.738899 0.05531,-0.821958 0.120563,-1.656528 0.118565,-2.480871 -2.65e-4,-0.147635 0.07456,-0.547114 -0.02906,-0.441952 -0.138171,0.140229 -0.07176,0.38713 -0.107643,0.580694 -0.06748,0.904184 -0.132559,1.81397 -0.121968,2.721517 0.0031,0.268394 -0.04742,0.922205 0.182812,0.784215 0.123711,-0.07415 0.156239,-0.242488 0.23436,-0.363734 0.269668,-0.669903 0.344349,-1.387332 0.482361,-2.088409 0.02821,-0.143285 0.05137,-0.289636 0.105881,-0.425116 0.01169,-0.02909 0.07082,-0.07319 0.08299,-0.04429 0.04243,0.100698 0.02376,0.217249 0.03566,0.325874 0.02228,0.314666 0.04826,2.064062 0.379163,2.130581 0.364882,0.07335 0.79012,-0.824164 0.812292,-0.857379 0.359331,-0.612111 0.574464,-1.301115 0.930836,-1.914859 0.09264,-0.159536 0.167098,-0.371798 0.339701,-0.436925 0.09597,-0.03621 0.16632,0.136364 0.20125,0.232812 0.07524,0.20773 0.094,0.432504 0.119216,0.651995 0.02971,0.25863 0.03016,0.519789 0.04524,0.779684 -1.64e-4,0.245372 -2.64e-4,0.490742 -5.29e-4,0.736111 0,0 0.02,2e-6 0.02,2e-6 v 0 c 1.64e-4,-0.245409 2.65e-4,-0.49082 5.3e-4,-0.736229 -0.01508,-0.259977 -0.01556,-0.521216 -0.04525,-0.779931 -0.05504,-0.479465 -0.141528,-0.962911 -0.360421,-0.885764 -0.174098,0.06136 -0.247049,0.277693 -0.339725,0.43734 -0.356253,0.613715 -0.571499,1.302557 -0.93082,1.914586 -0.181289,0.271235 -0.49626,0.916223 -0.772363,0.85733 -0.335807,-0.07163 -0.354762,-1.812206 -0.37913,-2.12969 -0.02519,-0.109228 -0.02053,-0.230007 -0.07554,-0.327681 -0.01553,-0.02758 -0.07132,0.01656 -0.0831,0.04595 -0.05438,0.135588 -0.07767,0.28194 -0.105883,0.425278 -0.165185,0.83915 -0.04627,0.546756 -0.274765,1.415335 -0.05967,0.22683 -0.138382,0.448223 -0.207571,0.672333 -0.06482,0.121055 -0.08052,0.286517 -0.194458,0.363159 -0.222252,0.149508 -0.179617,-0.514688 -0.182742,-0.782531 -0.01058,-0.907463 0.05448,-1.817161 0.121965,-2.721261 0.02254,-0.19362 -0.04362,-0.420807 0.06765,-0.580861 0.08423,-0.121166 0.02871,0.294182 0.02906,0.441751 5.29e-4,0.245367 -0.01606,0.490482 -0.02622,0.735642 -0.02461,0.594926 -0.05237,1.150829 -0.09236,1.745147 -0.01659,0.246446 -0.03772,0.492567 -0.05657,0.738851 z" />
      <path
         style="fill:#000000;stroke:#000000;stroke-width:0.499999;stroke-dasharray:none"
         id="path24"
         d="m 50.358013,47.949188 c 0.585854,-0.542332 1.16445,-1.110334 1.595617,-1.788768 0.116443,-0.183222 0.248174,-0.367578 0.298815,-0.578681 0.03068,-0.127876 0.0409,-0.31327 -0.06672,-0.388827 -0.117732,-0.08265 -0.286435,0.0269 -0.429654,0.04035 -0.196274,0.169614 -0.42771,0.30553 -0.588817,0.508844 -0.500116,0.631134 -0.80808,1.31355 -0.748403,2.146366 0.02635,0.367893 0.115771,0.762442 0.345098,1.051317 0.645769,0.813448 1.384141,0.538916 2.258259,0.501851 1.63849,-0.596273 0.937961,-0.218051 2.148866,-1.042361 0,0 -0.0199,-0.0019 -0.0199,-0.0019 v 0 c -1.210873,0.823616 -0.510381,0.445752 -2.148728,1.041263 -0.865085,0.03847 -1.57779,0.306514 -2.218503,-0.499444 -0.229338,-0.288485 -0.318725,-0.682783 -0.34509,-1.050377 -0.05967,-0.832048 0.248303,-1.514634 0.748331,-2.144956 0.161031,-0.202991 0.392451,-0.33842 0.588677,-0.507632 0.129955,-0.01431 0.285512,-0.121695 0.389872,-0.04294 0.104629,0.07896 0.09736,0.26008 0.06674,0.387535 -0.05069,0.210989 -0.182372,0.39524 -0.298797,0.578358 -0.431202,0.678222 -1.009679,1.246119 -1.595572,1.788192 z" />
      <path
         style="fill:#000000;stroke:#000000;stroke-width:0.499999;stroke-dasharray:none"
         id="path25"
         d="m 25.874389,66.646406 c 0.834565,-0.465051 1.923408,-1.069277 2.682968,-1.510774 8.841195,-5.138952 -2.771931,1.537245 7.679381,-4.503396 4.511516,-2.607564 3.952594,-2.271501 8.290731,-4.655389 1.479675,-0.773747 3.655515,-1.989132 5.309135,-2.613376 0.33842,-0.127757 0.766821,-0.453211 1.058497,-0.239258 0.220123,0.16147 -0.276563,0.483031 -0.483616,0.660953 -0.657124,0.564671 -1.371613,1.060635 -2.087602,1.548511 -1.18813,0.809599 -2.414664,1.561351 -3.621995,2.342026 -2.634377,1.771089 -5.466635,3.229705 -8.116303,4.976108 -0.857324,0.565068 -1.834999,1.027094 -2.482,1.8244 -0.166508,0.205192 0.43952,0.410099 0.700799,0.370591 1.838687,-0.278029 5.839238,-2.05152 7.275076,-2.635252 3.293284,-1.394836 6.520738,-2.932446 9.71727,-4.533686 0,0 -0.01987,-0.0021 -0.01987,-0.0021 v 0 c -3.196535,1.601171 -6.423975,3.138749 -9.717255,4.533526 -1.342043,0.545547 -5.465852,2.363018 -7.235332,2.635449 -0.260546,0.04011 -0.867072,-0.16201 -0.70077,-0.366551 0.647729,-0.796663 1.624681,-1.259197 2.481984,-1.824228 2.649705,-1.746367 5.48191,-3.205081 8.116306,-4.976159 1.207336,-0.780719 2.433926,-1.53244 3.622011,-2.342155 0.71606,-0.488019 1.435372,-0.978678 2.087649,-1.549154 0.200576,-0.175422 0.66298,-0.513273 0.443834,-0.664861 -0.297535,-0.205809 -0.720098,0.111837 -1.058548,0.239652 -1.654326,0.62476 -3.828404,1.839211 -5.30915,2.613538 -4.338117,2.383911 -3.779242,2.047875 -8.290738,4.655439 -10.469024,6.050909 1.175925,-0.643702 -7.679375,4.503372 -0.757951,0.440552 -1.849196,1.046152 -2.682971,1.510781 z" />
      <path
         style="fill:#000000;stroke:#000000;stroke-width:0.499999;stroke-dasharray:none"
         id="path26"
         d="m 49.917389,44.8096 c 0.340937,-0.73325 0.818653,-1.394886 1.165082,-2.125684 0.200819,-0.423629 0.192672,-0.3103 0.147045,-0.597402 0,0 -0.02,2.64e-4 -0.02,2.64e-4 v 0 c 0.04582,0.286174 0.05371,0.172763 -0.147024,0.596096 -0.346506,0.730776 -0.824145,1.392475 -1.165085,2.125747 z" />
    </g>
  </g>
</svg>
