<?xml version="1.0" encoding="UTF-8" standalone="no"?>
<!-- Created with Inkscape (http://www.inkscape.org/) -->

<svg
   width="100mm"
   height="100mm"
   viewBox="0 0 100 100"
   version="1.1"
   id="svg1"
   inkscape:version="1.4 (86a8ad7, 2024-10-11)"
   sodipodi:docname="storePageAppHandArt.svg"
   xmlns:inkscape="http://www.inkscape.org/namespaces/inkscape"
   xmlns:sodipodi="http://sodipodi.sourceforge.net/DTD/sodipodi-0.dtd"
   xmlns="http://www.w3.org/2000/svg"
   xmlns:svg="http://www.w3.org/2000/svg">
  <sodipodi:namedview
     id="namedview1"
     pagecolor="#ffffff"
     bordercolor="#000000"
     borderopacity="0.25"
     inkscape:showpageshadow="2"
     inkscape:pageopacity="0.0"
     inkscape:pagecheckerboard="0"
     inkscape:deskcolor="#d1d1d1"
     inkscape:document-units="mm"
     inkscape:zoom="1.18"
     inkscape:cx="200.42373"
     inkscape:cy="216.52542"
     inkscape:window-width="1920"
     inkscape:window-height="1017"
     inkscape:window-x="-8"
     inkscape:window-y="-2"
     inkscape:window-maximized="1"
     inkscape:current-layer="layer1" />
  <defs
     id="defs1">
    <inkscape:path-effect
       effect="powerstroke"
       message=""
       id="path-effect14"
       is_visible="true"
       lpeversion="1.3"
       scale_width="1"
       interpolator_type="CentripetalCatmullRom"
       interpolator_beta="0.75"
       start_linecap_type="round"
       end_linecap_type="round"
       offset_points="155.80893,5.4662575"
       linejoin_type="spiro"
       miter_limit="4"
       not_jump="true"
       sort_points="true" />
    <inkscape:path-effect
       effect="simplify"
       id="path-effect13"
       is_visible="true"
       lpeversion="1.3"
       threshold="0.012"
       steps="1"
       smooth_angles="0"
       helper_size="0"
       simplify_individual_paths="false"
       simplify_just_coalesce="false"
       step="1" />
    <inkscape:path-effect
       effect="powerstroke"
       message=""
       id="path-effect12"
       is_visible="true"
       lpeversion="1.3"
       scale_width="1"
       interpolator_type="CentripetalCatmullRom"
       interpolator_beta="0.75"
       start_linecap_type="round"
       end_linecap_type="round"
       offset_points="211.04914,5.4662575"
       linejoin_type="spiro"
       miter_limit="4"
       not_jump="true"
       sort_points="true" />
    <inkscape:path-effect
       effect="simplify"
       id="path-effect11"
       is_visible="true"
       lpeversion="1.3"
       threshold="0.012"
       steps="1"
       smooth_angles="0"
       helper_size="0"
       simplify_individual_paths="false"
       simplify_just_coalesce="false"
       step="1" />
    <inkscape:path-effect
       effect="powerstroke"
       message=""
       id="path-effect10"
       is_visible="true"
       lpeversion="1.3"
       scale_width="1"
       interpolator_type="CentripetalCatmullRom"
       interpolator_beta="0.75"
       start_linecap_type="round"
       end_linecap_type="round"
       offset_points="120.14373,5.4662575"
       linejoin_type="spiro"
       miter_limit="4"
       not_jump="true"
       sort_points="true" />
    <inkscape:path-effect
       effect="simplify"
       id="path-effect9"
       is_visible="true"
       lpeversion="1.3"
       threshold="0.012"
       steps="1"
       smooth_angles="0"
       helper_size="0"
       simplify_individual_paths="false"
       simplify_just_coalesce="false"
       step="1" />
  </defs>
  <g
     inkscape:label="Layer 1"
     inkscape:groupmode="layer"
     id="layer1">
    <path
       style="fill:#000000;stroke:#000000;stroke-width:0.499999;stroke-dasharray:none"
       id="path55"
       d="m 29.732983,58.383307 c -0.709208,0.342133 -2.082713,0.821513 -2.500373,1.522097 -0.04052,0.06797 -0.04115,0.152813 -0.06173,0.22922 0.04423,0.0645 0.07027,0.146378 0.132678,0.193513 0.08671,0.06549 0.973937,0.499179 0.990748,0.507423 0.640438,0.314018 1.185953,0.605163 1.769185,1.018191 0.302934,0.345046 1.210455,1.144183 1.0581,1.694342 -0.09191,0.331903 -0.582943,0.741891 -0.783325,0.940421 -0.608291,0.481971 -1.265275,0.904272 -1.973408,1.224656 -0.163685,0.07406 -0.626126,0.276429 -0.859259,0.253518 -0.07205,-0.0071 -0.124872,-0.0733 -0.187306,-0.109947 -0.148169,-0.405456 -0.115959,-0.169328 0.01543,-0.71478 0,0 -0.02,-5.29e-4 -0.02,-5.29e-4 v 0 c -0.131432,0.547092 -0.1635,0.31006 -0.01532,0.71741 0.07566,0.03686 0.143177,0.102893 0.226992,0.110598 0.234944,0.02159 0.692845,-0.17875 0.859337,-0.254127 0.708165,-0.320611 1.365237,-0.743003 1.973464,-1.225277 0.202017,-0.200322 0.691218,-0.608534 0.783389,-0.942235 0.152281,-0.551341 -0.754663,-1.349972 -1.058191,-1.696013 -0.583261,-0.413274 -1.128617,-0.704443 -1.769218,-1.018503 -0.01146,-0.0056 -0.907225,-0.443788 -0.990661,-0.506413 -0.06217,-0.04666 -0.08843,-0.127851 -0.132649,-0.19178 0.02056,-0.07611 0.02125,-0.160663 0.06169,-0.228343 0.418356,-0.700122 1.790885,-1.17905 2.500254,-1.520923 z" />
    <path
       style="fill:#000000;stroke:#000000;stroke-width:0.499999;stroke-dasharray:none"
       id="path58"
       d="m 33.631282,57.522638 c -0.910092,1.514814 -1.514446,3.320156 -1.289597,5.108102 0.03881,0.308644 0.14815,0.604253 0.222223,0.90638 0.164828,0.341456 0.303271,0.832387 0.703707,1.012357 0.525947,0.236379 1.067851,-0.372769 1.390727,-0.659876 0,0 -0.01992,-0.0016 -0.01992,-0.0016 v 0 c -0.228725,0.203184 -0.587333,0.58083 -0.915093,0.670402 -0.672103,0.183679 -0.93489,-0.55952 -1.139418,-1.021678 -0.07407,-0.301988 -0.183406,-0.597456 -0.222218,-0.905963 -0.224885,-1.78758 0.379616,-3.592486 1.289566,-5.106921 z" />
    <path
       style="fill:#000000;stroke:#000000;stroke-width:0.499999;stroke-dasharray:none"
       id="path59"
       d="m 30.787438,58.834329 c 0.160864,0.03773 0.317748,0.101886 0.482589,0.113194 0.364434,0.025 2.178698,-0.121367 2.236189,-0.134326 0.196043,-0.04419 0.321009,-0.249116 0.505823,-0.328041 0.48677,-0.207873 1.014905,-0.300988 1.521902,-0.452999 0.133845,-0.03056 0.267687,-0.06112 0.401531,-0.09169 0,0 -0.01982,-0.0027 -0.01982,-0.0027 v 0 c -0.13385,0.03061 -0.267703,0.06121 -0.401553,0.09182 -0.140594,0.04215 -1.482473,0.445349 -1.521891,0.452935 -0.48396,0.09316 -0.984978,0.08549 -1.465784,0.19376 -0.173273,0.03902 -0.30059,0.205393 -0.474154,0.243086 -0.550042,0.119454 -0.760132,0.02601 -1.245002,-0.08763 z" />
    <path
       style="fill:#000000;stroke:#000000;stroke-width:0.499999;stroke-dasharray:none"
       id="path60"
       d="m 37.805016,60.401313 c -0.375177,0.170688 -0.57621,0.216427 -0.861979,0.547722 -0.392668,0.455223 -0.654452,1.135851 -0.595489,1.74063 0.01675,0.171757 0.09806,0.330917 0.147097,0.496377 0.113914,0.100195 0.203272,0.238607 0.341742,0.300583 0.656502,0.293833 1.435615,-0.366112 1.764649,-0.871609 0.08459,-0.129961 0.13354,-0.279916 0.200308,-0.419873 0.115025,-1.22069 -0.850665,-1.638655 -1.827901,-2.02461 -0.423598,-0.07557 -0.237119,-0.09193 -0.561482,-0.01103 0,0 0.01984,0.0026 0.01984,0.0026 v 0 c 0.28298,-0.08684 0.110789,-0.06205 0.521796,0.01082 0.975963,0.385006 1.942642,0.801955 1.827778,2.021335 -0.06676,0.13979 -0.11571,0.289578 -0.200281,0.419367 -0.320572,0.491979 -1.081445,1.157465 -1.724769,0.871307 -0.138374,-0.06155 -0.227785,-0.199641 -0.341677,-0.299461 -0.04903,-0.165224 -0.130347,-0.324141 -0.14709,-0.495673 -0.05898,-0.604268 0.202813,-1.284393 0.59541,-1.738995 0.285676,-0.33079 0.486968,-0.376571 0.861891,-0.546904 z" />
    <path
       style="fill:#000000;stroke:#000000;stroke-width:0.499999;stroke-dasharray:none"
       id="path61"
       d="m 40.818614,62.125399 c -0.01701,-0.879711 0.02331,-1.760942 0,-2.640486 -0.0062,-0.232752 -0.0204,-0.465453 -0.04328,-0.697159 -0.01042,-0.105627 0.01236,-0.23264 -0.05657,-0.313362 -0.0348,-0.04075 -0.07704,0.07452 -0.115556,0.111774 -0.100076,0.513627 -0.250193,1.019225 -0.329303,1.537022 -0.02236,0.146294 -0.06104,0.295516 -0.04071,0.442103 0.01162,0.08382 0.048,0.207423 0.132104,0.216787 0.151138,0.01683 0.286221,-0.102855 0.429332,-0.154279 0.899784,-0.565309 1.664877,-1.30342 2.539523,-1.90463 0,0 -0.0199,-0.0019 -0.0199,-0.0019 v 0 c -0.87443,0.601303 -1.639459,1.339408 -2.539474,1.904151 -0.129836,0.05186 -0.250608,0.171548 -0.389506,0.155594 -0.0837,-0.0096 -0.120475,-0.132057 -0.132075,-0.215506 -0.02037,-0.146511 0.01836,-0.295667 0.0407,-0.441889 0.07908,-0.517461 0.228952,-1.022776 0.329261,-1.536009 0.02521,-0.03761 0.05067,-0.150612 0.07561,-0.112826 0.05842,0.08853 0.04614,0.207578 0.05657,0.313129 0.02291,0.231663 0.03712,0.464325 0.04329,0.697034 0.0168,0.633648 0,1.26774 0,1.90161 0,0.24629 0,0.492583 0,0.738876 z" />
    <path
       style="fill:#000000;stroke:#000000;stroke-width:0.499999;stroke-dasharray:none"
       id="path62"
       d="m 44.665854,60.816537 c 0.656839,-0.445344 1.177767,-1.064064 1.649638,-1.694921 0.224202,-0.299744 0.572376,-0.69455 0.545354,-1.12386 -0.0066,-0.104669 -0.105775,-0.181128 -0.158663,-0.271695 -0.130937,-0.0087 -0.265359,-0.05737 -0.392811,-0.02614 -1.136684,0.278648 -2.07568,1.493776 -2.056725,2.664145 0.0048,0.297198 0.152696,0.574532 0.229044,0.861801 0.248473,0.21508 0.464796,0.474212 0.745413,0.645244 0.933826,0.569146 2.467531,0.813835 3.507981,0.401029 0.141245,-0.05604 0.257784,-0.160964 0.386676,-0.241448 0,0 -0.0199,-0.0021 -0.0199,-0.0021 v 0 c -0.128868,0.08028 -0.24543,0.184964 -0.386604,0.240837 -1.064268,0.421208 -2.511959,0.181752 -3.46823,-0.400111 -0.280506,-0.17068 -0.496895,-0.429366 -0.745344,-0.644052 -0.07635,-0.286956 -0.224224,-0.56397 -0.229042,-0.860872 -0.01823,-1.122936 0.92066,-2.380506 2.016956,-2.661549 0.12701,-0.03256 0.261741,0.01611 0.392612,0.02418 0.05288,0.09006 0.152056,0.165954 0.158639,0.270184 0.02706,0.428562 -0.321733,0.824108 -0.545311,1.12295 -0.471858,0.630693 -0.992786,1.249169 -1.649587,1.694318 z" />
    <path
       style="fill:#000000;stroke:#000000;stroke-width:0.499999;stroke-dasharray:none"
       id="path63"
       d="m 42.505831,65.370762 c -0.414698,2.13778 -0.533551,4.31365 -0.608121,6.485144 0.131669,-1.060707 -0.09059,1.481505 -0.0145,1.117002 0.04507,-0.215882 0.0435,-1.360826 0.04537,-1.41986 0.03478,-1.097799 0.0553,-1.140016 0.155525,-2.256364 0.248845,-1.71921 0.48157,-3.58499 1.489633,-5.051229 0.08307,-0.05693 0.153887,-0.138338 0.249227,-0.170783 0.548206,-0.186558 0.88706,1.096621 0.967959,1.412068 0.0085,0.149648 0.04744,0.300672 0.02545,0.448942 -0.112281,0.75769 -0.930915,1.29423 -1.527908,1.657591 -0.333835,0.106452 -0.183703,0.132101 -0.455086,-0.04088 0,0 -0.0199,0.0021 -0.0199,0.0021 v 0 c 0.314809,0.167198 0.150048,0.151395 0.494874,0.04084 0.597672,-0.364167 1.41573,-0.901062 1.528011,-1.65975 0.02196,-0.148399 -0.01699,-0.299553 -0.02548,-0.449331 -0.09187,-0.358439 -0.409545,-1.603293 -1.007856,-1.413499 -0.09614,0.0305 -0.166192,0.114342 -0.249287,0.171513 -1.007751,1.466858 -1.240936,3.332586 -1.489668,5.052253 -0.10967,1.221653 -0.207259,2.448298 -0.160899,3.676404 0.01405,0.372076 -0.02914,-2.19243 0.0145,-1.116933 0.07457,-2.171354 0.193399,-4.347088 0.608115,-6.484723 z" />
    <path
       style="fill:#000000;stroke:#000000;stroke-width:0.499999;stroke-dasharray:none"
       id="path64"
       d="m 47.135774,65.551036 c -0.424884,0.39846 -2.252104,2.677993 -1.24125,3.170319 0.132524,0.06455 0.29469,0.0086 0.442034,0.01286 0.542793,-0.190375 0.986877,-0.556149 1.245722,-1.079166 0.168256,-0.339974 0.09831,-0.675492 0.347212,-0.954768 0.752137,0.40713 1.168038,1.281205 1.884202,1.737625 0.114069,0.0727 0.25432,0.09226 0.381481,0.138387 0,0 0.01984,-0.0024 0.01984,-0.0024 v 0 c -0.127135,-0.04588 -0.267372,-0.06508 -0.381405,-0.137644 -0.733552,-0.466765 -1.128882,-1.366756 -1.924074,-1.737376 -0.248391,0.280654 -0.17858,0.614585 -0.347228,0.955011 -0.2511,0.506862 -0.688356,0.872445 -1.205998,1.077299 -0.14728,-0.0037 -0.309155,0.05293 -0.441841,-0.01111 -1.011443,-0.488109 0.817679,-2.771026 1.241214,-3.167176 z" />
    <path
       style="fill:#000000;stroke:#000000;stroke-width:0.499999;stroke-dasharray:none"
       id="path65"
       d="m 52.647008,63.808133 c -0.156438,0.114342 -0.331639,0.206671 -0.469313,0.34303 -0.603432,0.597664 -1.456446,1.953998 -1.311462,2.858471 0.01497,0.0934 0.106539,0.156347 0.159808,0.234521 0.08215,-0.04595 0.184057,-0.06738 0.246454,-0.137853 0.303025,-0.342278 0.414184,-0.898888 0.455284,-1.335077 0.03842,-0.407736 -0.07335,-0.239734 0.06696,-0.411684 0.463569,1.3843 0.258136,3.067563 -0.144952,4.44555 -0.09367,0.32022 -0.24243,0.621681 -0.363643,0.932522 -0.143899,0.206152 -0.255614,0.43901 -0.431694,0.618458 -0.876089,0.892844 -1.047279,-0.555398 -0.881801,-1.123484 0.116602,-0.400289 0.340214,-0.761289 0.51032,-1.141934 0.807593,-1.255747 1.842823,-2.32977 3.061113,-3.191581 0.268486,-0.189926 0.564687,-0.337281 0.847029,-0.505918 0,0 -0.0199,-0.0021 -0.0199,-0.0021 v 0 c -0.282351,0.168728 -0.578557,0.31618 -0.847056,0.506182 -1.218351,0.862161 -2.253676,1.936409 -3.061176,3.19254 -0.170112,0.380878 -0.393761,0.742116 -0.510337,1.142637 -0.08111,0.278696 -0.21051,1.516965 0.496054,1.380948 0.162619,-0.03131 0.309806,-0.137827 0.42571,-0.256112 0.176048,-0.179665 0.287811,-0.412623 0.431715,-0.618931 0.121219,-0.310947 0.269978,-0.612516 0.363657,-0.932837 0.333078,-1.138933 0.593648,-2.999657 0.243792,-4.159268 -0.03078,-0.102045 -0.09253,-0.192048 -0.138792,-0.28807 -0.139708,0.17414 -0.02848,0.0041 -0.067,0.412752 -0.0489,0.518584 -0.19042,1.180486 -0.661775,1.472023 -0.05326,-0.07773 -0.144831,-0.140161 -0.159774,-0.233191 -0.145159,-0.903658 0.708337,-2.259891 1.311375,-2.856727 0.137668,-0.136253 0.312852,-0.228465 0.469278,-0.342696 z" />
    <path
       style="fill:#000000;stroke:#000000;stroke-width:0.499999;stroke-dasharray:none"
       id="path66"
       d="m 54.882769,65.495129 c 0.07588,-0.112357 0.144015,-0.230359 0.227653,-0.337071 1.146026,-1.462193 -0.541923,0.823331 0.924168,-1.089213 0.447778,-0.584136 0.797938,-1.193014 1.104879,-1.858144 0.0483,-0.242512 0.306125,-0.67917 0.135284,-0.942277 -0.211775,-0.326152 -0.782026,-0.01476 -0.992137,0.0635 -0.976834,0.677023 -1.714773,1.642586 -2.132322,2.758281 -0.763572,2.040268 0.36359,-0.260879 -0.680612,1.732174 0.202155,0.150196 1.376233,1.054081 1.705735,1.193718 0.724034,0.306829 1.701739,0.319162 2.432875,0.0223 0.174106,-0.07069 0.317878,-0.200485 0.476819,-0.300728 0.09381,-0.117057 0.187629,-0.234116 0.281442,-0.351173 0,0 -0.01995,-0.0013 -0.01995,-0.0013 v 0 c -0.0938,0.116837 -0.18759,0.233675 -0.281387,0.350512 -0.158914,0.100031 -0.302707,0.229587 -0.476745,0.300096 -0.721418,0.292266 -1.678808,0.280442 -2.393148,-0.02167 -0.27948,-0.118194 -0.602798,-0.237209 -0.764755,-0.493821 -0.124854,-0.197826 0.0068,-0.467812 0.01021,-0.70172 -0.169553,-0.280051 -0.458012,-0.516712 -0.508658,-0.840147 -0.04738,-0.302554 0.130783,-0.600517 0.238154,-0.88732 0.417515,-1.115229 1.155266,-2.08058 2.132197,-2.756776 0.210984,-0.0851 0.74221,-0.386953 0.952289,-0.06549 0.171225,0.262009 -0.08746,0.69959 -0.135271,0.940999 -0.453864,0.983186 -1.23331,2.264555 -2.085713,2.941711 -0.156758,0.124529 -0.340815,0.210156 -0.511225,0.315233 z" />
    <path
       style="fill:#000000;stroke:#000000;stroke-width:0.499999;stroke-dasharray:none"
       id="path67"
       d="m 29.284498,78.469365 c -0.360886,0.501263 -1.278911,1.611611 -0.601122,2.239105 0.119216,0.110371 0.291152,0.1754 0.453588,0.178332 0.204753,0.0037 0.395539,-0.106294 0.593307,-0.159444 0.585147,-0.328096 1.040077,-0.800449 1.328158,-1.409099 0.06292,-0.132924 0.100933,-0.277032 0.134146,-0.420293 0.01873,-0.0808 -0.03867,-0.305798 0.0208,-0.247965 0.08013,0.07794 0.04196,0.219596 0.06293,0.329393 0.260327,0.689441 0.59712,1.70928 1.109173,2.250726 0.06797,0.07187 0.16891,0.103013 0.253365,0.154519 0,0 0.0199,-0.0021 0.0199,-0.0021 v 0 c -0.08443,-0.05123 -0.185378,-0.08199 -0.253293,-0.15368 -0.511884,-0.540353 -0.848961,-1.561444 -1.109144,-2.250012 -0.03431,-0.109688 -0.007,-0.265808 -0.102929,-0.329067 -0.06912,-0.04557 -0.0021,0.166865 -0.02077,0.247515 -0.03322,0.143108 -0.07124,0.28706 -0.134128,0.41983 -0.288121,0.608253 -0.742873,1.080133 -1.328018,1.407589 -0.184539,0.05321 -0.361588,0.162922 -0.553619,0.159644 -0.162219,-0.0028 -0.334182,-0.06687 -0.453465,-0.176845 -0.678333,-0.625382 0.241012,-1.736828 0.601052,-2.236303 z" />
    <path
       style="fill:#000000;stroke:#000000;stroke-width:0.499999;stroke-dasharray:none"
       id="path68"
       d="m 35.641483,77.073899 c 0.0044,2.480951 0.03248,4.960337 -0.09986,7.438477 -0.01744,0.192244 -0.03486,0.384488 -0.0523,0.576731 -0.01333,0.0168 -0.0352,0.07132 -0.04004,0.05041 -0.110667,-0.478552 -0.09377,-0.97816 -0.120317,-1.468623 -0.0649,-1.19924 -0.06801,-1.771999 -0.0979,-3.019814 0.04778,-1.404509 0.05548,-2.836698 0.454264,-4.198374 0.03762,-0.128466 0.308398,-0.922991 0.549227,-1.076195 0.05296,-0.03369 0.114382,0.05174 0.171574,0.07761 0.0404,0.12065 0.107278,0.235482 0.121217,0.361955 0.0619,0.561663 -0.204677,1.459378 -0.514295,1.932548 -0.05831,0.08912 -0.140293,0.160288 -0.210439,0.24043 -0.05986,0.02811 -0.119719,0.05623 -0.179581,0.08434 0,0 0.01987,0.0024 0.01987,0.0024 v 0 c 0.05989,-0.02839 0.119771,-0.05677 0.179657,-0.08516 0.07015,-0.08031 0.15213,-0.151656 0.210468,-0.240916 0.309798,-0.474009 0.576215,-1.371677 0.514308,-1.934141 -0.014,-0.12703 -0.0809,-0.242454 -0.121349,-0.363681 -0.307811,-0.111392 -0.244991,-0.16511 -0.469357,0.274841 -0.766363,1.50272 -0.64235,3.297976 -0.745567,4.924542 0.02989,1.247965 0.03299,1.820531 0.0979,3.019901 0.01537,0.283975 0.03039,1.081714 0.160269,1.469819 0.0069,0.02064 0.02672,-0.03437 0.04008,-0.05156 0.01744,-0.192267 0.03486,-0.384535 0.0523,-0.576805 0.13234,-2.478174 0.104262,-4.957595 0.09986,-7.438583 z" />
    <path
       style="fill:#000000;stroke:#000000;stroke-width:0.499999;stroke-dasharray:none"
       id="path69"
       d="m 39.409991,75.685149 c -0.331417,2.708598 -0.612666,5.422117 -0.838136,8.141533 -0.01532,0.174935 -0.02666,0.350269 -0.04598,0.524809 -0.005,0.04495 0.0027,-0.09042 0.0029,-0.135638 0.0011,-0.247502 -0.0061,-0.495099 5.29e-4,-0.742508 0.04023,-1.470137 0.236341,-2.890129 0.470699,-4.340397 0.353316,-1.397956 0.718889,-2.841168 1.526955,-4.061013 0.06039,-0.09116 0.516208,-0.85783 0.894178,-0.630984 0.134599,0.08078 0.153128,0.274082 0.229693,0.411123 0.01561,0.244168 0.06244,0.488339 0.0468,0.732504 -0.06314,0.985914 -0.472945,2.281952 -1.144254,3.03098 -0.101447,0.113191 -0.238054,0.189063 -0.357079,0.283596 -0.08628,-0.02326 -0.172567,-0.04653 -0.258847,-0.0698 0,0 -0.01982,0.0026 -0.01982,0.0026 v 0 c 0.09953,0.02299 0.199062,0.04597 0.298591,0.06895 0.119041,-0.09472 0.255648,-0.170826 0.357121,-0.284165 0.671314,-0.749795 1.081188,-2.045772 1.144294,-3.032332 0.01564,-0.244488 -0.03122,-0.488976 -0.04683,-0.733464 -0.08982,-0.13765 -0.126296,-0.332193 -0.269449,-0.412946 -0.383548,-0.216363 -0.822846,0.524883 -0.894365,0.632894 -0.807958,1.220165 -1.17371,2.663475 -1.52698,4.061692 -0.234359,1.450372 -0.430477,2.870476 -0.470704,4.340715 -0.0068,0.247494 -0.0109,0.495387 -5.29e-4,0.742759 0.0019,0.04681 0.02732,0.181383 0.0371,0.135565 0.03665,-0.171741 0.03065,-0.34988 0.04598,-0.52482 0.22547,-2.719387 0.506719,-5.432877 0.838134,-8.141448 z" />
  </g>
</svg>
